<?xml version="1.0" encoding="utf-8" standalone="no"?>
<!DOCTYPE svg PUBLIC "-//W3C//DTD SVG 1.1//EN"
  "http://www.w3.org/Graphics/SVG/1.1/DTD/svg11.dtd">
<svg xmlns:xlink="http://www.w3.org/1999/xlink" width="346.909937pt" height="350.295875pt" viewBox="0 0 346.909937 350.295875" xmlns="http://www.w3.org/2000/svg" version="1.1">
 <metadata>
  <rdf:RDF xmlns:dc="http://purl.org/dc/elements/1.1/" xmlns:cc="http://creativecommons.org/ns#" xmlns:rdf="http://www.w3.org/1999/02/22-rdf-syntax-ns#">
   <cc:Work>
    <dc:type rdf:resource="http://purl.org/dc/dcmitype/StillImage"/>
    <dc:date>2026-02-01T23:34:23.209140</dc:date>
    <dc:format>image/svg+xml</dc:format>
    <dc:creator>
     <cc:Agent>
      <dc:title>Matplotlib v3.9.2, https://matplotlib.org/</dc:title>
     </cc:Agent>
    </dc:creator>
   </cc:Work>
  </rdf:RDF>
 </metadata>
 <defs>
  <style type="text/css">*{stroke-linejoin: round; stroke-linecap: butt}</style>
 </defs>
 <g id="figure_1">
  <g id="patch_1">
   <path d="M -0 350.295875 
L 346.909937 350.295875 
L 346.909937 0 
L -0 0 
L -0 350.295875 
z
" style="fill: none"/>
  </g>
  <g id="axes_1">
   <g id="patch_2">
    <path d="M 36.105937 310.804 
L 339.709938 310.804 
L 339.709938 7.2 
L 36.105937 7.2 
L 36.105937 310.804 
z
" style="fill: none"/>
   </g>
   <g id="matplotlib.axis_1">
    <g id="xtick_1">
     <g id="line2d_1">
      <defs>
       <path id="meb9b87a677" d="M 0 0 
L 0 3.5 
" style="stroke: #333333; stroke-width: 0.8"/>
      </defs>
      <g>
       <use xlink:href="#meb9b87a677" x="36.105937" y="310.804" style="fill: #333333; stroke: #333333; stroke-width: 0.8"/>
      </g>
     </g>
     <g id="text_1">
      <!-- 0 -->
      <g style="fill: #333333" transform="translate(32.606562 326.162281) scale(0.11 -0.11)">
       <defs>
        <path id="DejaVuSans-30" d="M 2034 4250 
Q 1547 4250 1301 3770 
Q 1056 3291 1056 2328 
Q 1056 1369 1301 889 
Q 1547 409 2034 409 
Q 2525 409 2770 889 
Q 3016 1369 3016 2328 
Q 3016 3291 2770 3770 
Q 2525 4250 2034 4250 
z
M 2034 4750 
Q 2819 4750 3233 4129 
Q 3647 3509 3647 2328 
Q 3647 1150 3233 529 
Q 2819 -91 2034 -91 
Q 1250 -91 836 529 
Q 422 1150 422 2328 
Q 422 3509 836 4129 
Q 1250 4750 2034 4750 
z
" transform="scale(0.015625)"/>
       </defs>
       <use xlink:href="#DejaVuSans-30"/>
      </g>
     </g>
    </g>
    <g id="xtick_2">
     <g id="line2d_2">
      <g>
       <use xlink:href="#meb9b87a677" x="289.109271" y="310.804" style="fill: #333333; stroke: #333333; stroke-width: 0.8"/>
      </g>
     </g>
     <g id="text_2">
      <!-- $K$ -->
      <g style="fill: #333333" transform="translate(285.479271 326.162281) scale(0.11 -0.11)">
       <defs>
        <path id="DejaVuSans-Oblique-4b" d="M 1081 4666 
L 1716 4666 
L 1331 2700 
L 3781 4666 
L 4622 4666 
L 1850 2438 
L 3878 0 
L 3109 0 
L 1247 2272 
L 806 0 
L 172 0 
L 1081 4666 
z
" transform="scale(0.015625)"/>
       </defs>
       <use xlink:href="#DejaVuSans-Oblique-4b" transform="translate(0 0.09375)"/>
      </g>
     </g>
    </g>
    <g id="text_3">
     <!-- $N_1$ -->
     <g style="fill: #333333" transform="translate(181.142938 340.808219) scale(0.11 -0.11)">
      <defs>
       <path id="DejaVuSans-Oblique-4e" d="M 1081 4666 
L 1931 4666 
L 3219 666 
L 4000 4666 
L 4616 4666 
L 3706 0 
L 2853 0 
L 1569 4025 
L 788 0 
L 172 0 
L 1081 4666 
z
" transform="scale(0.015625)"/>
       <path id="DejaVuSans-31" d="M 794 531 
L 1825 531 
L 1825 4091 
L 703 3866 
L 703 4441 
L 1819 4666 
L 2450 4666 
L 2450 531 
L 3481 531 
L 3481 0 
L 794 0 
L 794 531 
z
" transform="scale(0.015625)"/>
      </defs>
      <use xlink:href="#DejaVuSans-Oblique-4e" transform="translate(0 0.09375)"/>
      <use xlink:href="#DejaVuSans-31" transform="translate(74.804688 -16.3125) scale(0.7)"/>
     </g>
    </g>
   </g>
   <g id="matplotlib.axis_2">
    <g id="ytick_1">
     <g id="line2d_3">
      <defs>
       <path id="m8ebb0785a4" d="M 0 0 
L -3.5 0 
" style="stroke: #333333; stroke-width: 0.8"/>
      </defs>
      <g>
       <use xlink:href="#m8ebb0785a4" x="36.105937" y="310.804" style="fill: #333333; stroke: #333333; stroke-width: 0.8"/>
      </g>
     </g>
     <g id="text_4">
      <!-- 0 -->
      <g style="fill: #333333" transform="translate(22.107187 314.983141) scale(0.11 -0.11)">
       <use xlink:href="#DejaVuSans-30"/>
      </g>
     </g>
    </g>
    <g id="ytick_2">
     <g id="line2d_4">
      <g>
       <use xlink:href="#m8ebb0785a4" x="36.105937" y="57.800667" style="fill: #333333; stroke: #333333; stroke-width: 0.8"/>
      </g>
     </g>
     <g id="text_5">
      <!-- $K$ -->
      <g style="fill: #333333" transform="translate(21.845937 61.979807) scale(0.11 -0.11)">
       <use xlink:href="#DejaVuSans-Oblique-4b" transform="translate(0 0.09375)"/>
      </g>
     </g>
    </g>
    <g id="text_6">
     <!-- $N_2$ -->
     <g style="fill: #333333" transform="translate(15.558281 165.767) rotate(-90) scale(0.11 -0.11)">
      <defs>
       <path id="DejaVuSans-32" d="M 1228 531 
L 3431 531 
L 3431 0 
L 469 0 
L 469 531 
Q 828 903 1448 1529 
Q 2069 2156 2228 2338 
Q 2531 2678 2651 2914 
Q 2772 3150 2772 3378 
Q 2772 3750 2511 3984 
Q 2250 4219 1831 4219 
Q 1534 4219 1204 4116 
Q 875 4013 500 3803 
L 500 4441 
Q 881 4594 1212 4672 
Q 1544 4750 1819 4750 
Q 2544 4750 2975 4387 
Q 3406 4025 3406 3419 
Q 3406 3131 3298 2873 
Q 3191 2616 2906 2266 
Q 2828 2175 2409 1742 
Q 1991 1309 1228 531 
z
" transform="scale(0.015625)"/>
      </defs>
      <use xlink:href="#DejaVuSans-Oblique-4e" transform="translate(0 0.09375)"/>
      <use xlink:href="#DejaVuSans-32" transform="translate(74.804688 -16.3125) scale(0.7)"/>
     </g>
    </g>
   </g>
   <g id="LineCollection_1">
    <path d="M 38.635971 308.273967 
L 204.77308 142.136857 
L 204.659795 142.250142 
" clip-path="url(#pe6376d1074)" style="fill: none; stroke: #333333; stroke-width: 0.6"/>
    <path d="M 47.238084 308.273967 
L 47.238084 308.273967 
L 55.266001 306.398273 
L 63.257844 304.503388 
L 71.276026 302.558092 
L 79.322251 300.547711 
L 87.388226 298.457514 
L 95.450912 296.290404 
L 103.489539 294.058911 
L 111.505727 291.755248 
L 119.501818 289.361542 
L 127.474679 286.862002 
L 135.414158 284.257572 
L 143.312706 281.544005 
L 151.166823 278.697488 
L 158.967318 275.696505 
L 166.700763 272.530403 
L 174.353454 269.17718 
L 181.906511 265.598792 
L 189.331347 261.763654 
L 196.591572 257.628467 
L 203.637884 253.138287 
L 210.392157 248.227457 
L 216.745237 242.81505 
L 222.539545 236.819781 
L 227.54673 230.179532 
L 231.491633 222.89675 
L 234.044262 215.407848 
L 235.252143 208.022953 
L 235.301633 200.692539 
L 234.319151 193.361914 
L 232.37383 185.958201 
L 229.565052 178.557978 
L 226.149972 171.419437 
L 222.238471 164.640434 
L 218.222581 158.637241 
L 213.869613 152.785753 
L 213.869613 152.785753 
L 211.678604 150.016747 
L 210.087384 148.114562 
L 208.070622 145.869042 
" clip-path="url(#pe6376d1074)" style="fill: none; stroke: #333333; stroke-width: 0.6"/>
    <path d="M 73.044424 308.273967 
L 73.044424 308.273967 
L 81.377196 307.647808 
L 89.698951 307.003281 
L 98.014759 306.335892 
L 106.32684 305.641678 
L 114.636279 304.91723 
L 122.943452 304.158706 
L 131.248244 303.361206 
L 139.550162 302.518183 
L 147.848602 301.622263 
L 156.14287 300.66531 
L 164.43201 299.637258 
L 172.714643 298.524761 
L 180.98646 297.312975 
L 189.238783 295.988649 
L 197.463765 294.53081 
L 205.653506 292.905426 
L 213.794968 291.062391 
L 221.865746 288.925581 
L 229.822173 286.388581 
L 237.570574 283.310335 
L 244.93175 279.444576 
L 251.489741 274.42048 
L 251.489741 274.42048 
L 255.397172 269.846004 
L 258.1776 264.47643 
L 259.586478 259.183615 
L 260.053261 253.558945 
L 259.67341 247.195425 
L 258.384822 239.814809 
L 256.290934 231.838747 
L 253.706623 224.019774 
L 250.789631 216.401787 
L 247.600867 208.881676 
L 244.174895 201.44909 
" clip-path="url(#pe6376d1074)" style="fill: none; stroke: #333333; stroke-width: 0.6"/>
    <path d="M 133.259218 308.273967 
L 133.259218 308.273967 
L 141.61637 307.981801 
L 149.97117 307.672164 
L 158.323684 307.342238 
L 166.673852 306.988856 
L 175.021478 306.608084 
L 183.366191 306.194774 
L 191.707366 305.7418 
L 200.044065 305.239872 
L 208.37492 304.676869 
L 216.697809 304.035771 
L 225.009262 303.291358 
L 233.302927 302.403211 
L 241.566651 301.304444 
L 249.774641 299.874997 
L 257.862127 297.865108 
L 265.50671 294.735976 
L 265.50671 294.735976 
L 269.343449 292.020873 
L 269.343449 292.020873 
L 271.84372 288.915632 
L 273.291482 285.193318 
L 273.775879 281.249447 
L 273.52367 276.569751 
L 272.474526 270.724554 
L 270.443285 263.161976 
L 267.947133 255.412038 
" clip-path="url(#pe6376d1074)" style="fill: none; stroke: #333333; stroke-width: 0.6"/>
    <path d="M 227.882464 308.273967 
L 227.882464 308.273967 
L 236.238492 307.96133 
L 244.587746 307.575831 
L 252.923523 307.075977 
L 261.226571 306.377224 
L 269.417298 305.267172 
L 269.417298 305.267172 
L 275.846364 303.564297 
L 275.846364 303.564297 
L 278.717364 302.023312 
L 278.717364 302.023312 
L 280.475479 300.0703 
L 281.302279 297.634036 
L 281.394495 294.760824 
L 280.843935 290.987644 
L 279.469181 285.549419 
L 277.074866 277.888695 
" clip-path="url(#pe6376d1074)" style="fill: none; stroke: #333333; stroke-width: 0.6"/>
    <path d="M 313.903598 308.273967 
L 313.903598 308.273967 
L 305.556503 307.830396 
L 297.314799 306.890455 
L 297.314799 306.890455 
L 293.102748 305.836183 
L 293.102748 305.836183 
L 290.204097 304.370712 
L 287.736309 301.748816 
L 286.045408 298.974291 
L 284.492171 295.694303 
" clip-path="url(#pe6376d1074)" style="fill: none; stroke: #333333; stroke-width: 0.6"/>
    <path d="M 38.635971 15.802113 
L 38.635971 15.802113 
L 38.840588 24.162379 
L 39.143116 32.518014 
L 39.643244 40.857483 
L 40.665874 49.104823 
L 40.665874 49.104823 
L 41.873931 53.645006 
L 41.873931 53.645006 
L 43.499291 56.726198 
L 46.243921 59.329284 
L 49.167821 61.13668 
L 52.769878 62.871853 
L 59.562246 65.622381 
L 66.929388 68.434536 
L 74.492425 71.308133 
L 82.001223 74.203264 
L 89.528444 77.154678 
L 97.163208 80.206808 
L 104.754655 83.342686 
L 112.252165 86.538451 
L 119.794318 89.841049 
L 127.284817 93.25075 
L 134.641389 96.73822 
L 142.02967 100.356964 
L 149.329305 104.11052 
L 156.422181 107.948554 
L 163.519421 111.957574 
L 170.400639 116.103951 
L 177.025531 120.338461 
L 183.443993 124.726228 
L 189.27398 129.05477 
L 194.731735 133.365021 
L 194.731735 133.365021 
L 197.456728 135.638054 
L 199.338588 137.267707 
L 201.659811 139.391634 
" clip-path="url(#pe6376d1074)" style="fill: none; stroke: #333333; stroke-width: 0.6"/>
    <path d="M 38.635971 84.61902 
L 38.635971 84.61902 
L 39.304968 76.303239 
L 40.709476 68.394896 
L 40.709476 68.394896 
L 41.726172 65.842995 
L 41.726172 65.842995 
L 43.226031 64.105997 
L 45.195666 63.322124 
L 47.583785 63.261788 
L 50.868548 63.814389 
" clip-path="url(#pe6376d1074)" style="fill: none; stroke: #333333; stroke-width: 0.6"/>
    <path d="M 38.635971 127.629587 
L 38.635971 127.629587 
L 38.926184 119.272473 
L 39.27156 110.920108 
L 39.697325 102.57588 
L 40.249216 94.247699 
" clip-path="url(#pe6376d1074)" style="fill: none; stroke: #333333; stroke-width: 0.6"/>
    <path d="M 38.635971 170.640153 
L 38.635971 170.640153 
L 38.890729 162.281507 
L 39.169798 153.925002 
L 39.478936 145.571072 
L 39.825671 137.220415 
" clip-path="url(#pe6376d1074)" style="fill: none; stroke: #333333; stroke-width: 0.6"/>
    <path d="M 38.635971 213.65072 
L 38.635971 213.65072 
L 38.928136 205.293568 
L 39.237773 196.938768 
L 39.567699 188.586254 
L 39.921082 180.236085 
" clip-path="url(#pe6376d1074)" style="fill: none; stroke: #333333; stroke-width: 0.6"/>
    <path d="M 38.635971 256.661287 
L 38.635971 256.661287 
L 39.085079 248.313093 
L 39.551911 239.970577 
L 40.0387 231.632048 
L 40.547946 223.296625 
" clip-path="url(#pe6376d1074)" style="fill: none; stroke: #333333; stroke-width: 0.6"/>
    <path d="M 38.635971 291.06974 
L 38.635971 291.06974 
L 39.748841 282.811294 
L 40.881587 274.583227 
L 42.044277 266.358834 
L 43.245451 258.133004 
L 44.493792 249.905539 
L 45.795971 241.676424 
L 47.158871 233.446357 
L 48.590401 225.216429 
L 50.094761 216.994674 
L 51.673552 208.791092 
L 53.335504 200.607902 
L 55.094699 192.445894 
L 56.969038 184.307395 
L 58.983226 176.196839 
L 61.156715 168.125482 
L 63.507418 160.108622 
L 66.073054 152.160893 
L 68.912737 144.304381 
L 72.092572 136.578405 
L 75.686643 129.044448 
L 79.821004 121.794047 
L 84.648764 114.999576 
L 90.333884 108.941943 
L 96.982689 104.023365 
L 103.533765 100.952237 
L 110.042997 99.285614 
L 116.59292 98.71362 
L 123.619801 99.075933 
L 131.377155 100.397829 
" clip-path="url(#pe6376d1074)" style="fill: none; stroke: #333333; stroke-width: 0.6"/>
    <path d="M 55.840198 299.671853 
L 62.980263 295.546193 
L 70.145199 291.356539 
L 77.30606 287.101024 
L 84.441732 282.782247 
L 91.548509 278.413292 
L 98.626666 273.982012 
L 105.665367 269.489849 
L 112.665196 264.929254 
L 119.622378 260.300415 
L 126.528319 255.592996 
L 133.380702 250.805288 
L 140.172706 245.930727 
L 146.895404 240.959722 
L 153.542738 235.888462 
L 160.10342 230.704551 
L 166.561361 225.393358 
L 172.904391 219.944791 
L 179.107551 214.338371 
L 185.14215 208.551075 
L 190.969504 202.557304 
L 196.525711 196.314814 
L 201.725949 189.779314 
L 206.414712 182.884343 
L 210.32291 175.569654 
L 212.976129 167.803591 
L 212.976129 167.803591 
L 213.787921 162.394159 
L 213.787921 162.394159 
L 213.590025 157.908228 
" clip-path="url(#pe6376d1074)" style="fill: none; stroke: #333333; stroke-width: 0.6"/>
    <path d="M 107.452878 299.671853 
L 115.664815 298.142458 
L 123.867707 296.541151 
L 132.051249 294.870526 
L 140.214235 293.118511 
L 148.3556 291.268551 
L 156.473591 289.30374 
L 164.564278 287.204854 
L 172.615625 284.96021 
L 180.613687 282.549907 
L 188.546146 279.934793 
L 196.39545 277.065718 
L 204.129306 273.899362 
L 211.697095 270.37182 
L 219.025482 266.369105 
L 225.997585 261.78492 
L 232.411675 256.47023 
L 237.949537 250.289433 
L 242.12742 243.434434 
L 244.600185 236.791524 
L 245.840667 230.049767 
L 246.03401 223.06836 
L 245.260555 215.691564 
" clip-path="url(#pe6376d1074)" style="fill: none; stroke: #333333; stroke-width: 0.6"/>
    <path d="M 339.709938 304.557189 
L 337.550401 304.476466 
L 329.199131 304.111106 
L 320.858101 303.606408 
L 312.54158 302.866719 
L 304.693401 301.756518 
L 296.699371 299.671853 
L 296.699371 299.671853 
" clip-path="url(#pe6376d1074)" style="fill: none; stroke: #333333; stroke-width: 0.6"/>
    <path d="M 339.709938 291.897299 
L 339.430239 291.873646 
L 331.107824 291.06974 
L 322.814432 290.022419 
L 314.578264 288.617098 
L 306.461518 286.669454 
L 298.592854 283.906361 
L 291.28677 280.006277 
L 285.426439 275.336384 
" clip-path="url(#pe6376d1074)" style="fill: none; stroke: #333333; stroke-width: 0.6"/>
    <path d="M 339.709938 283.465896 
L 339.41334 283.43535 
L 331.107824 282.467627 
L 322.839336 281.235796 
L 314.638258 279.636202 
L 306.564096 277.512871 
L 298.722702 274.659983 
" clip-path="url(#pe6376d1074)" style="fill: none; stroke: #333333; stroke-width: 0.6"/>
    <path d="M 339.709938 274.950023 
L 339.403529 274.915512 
L 331.107824 273.865513 
L 322.851884 272.550477 
L 314.664105 270.880541 
L 306.595321 268.728029 
L 298.732971 265.922876 
L 291.230289 262.315391 
L 284.29565 257.805061 
L 278.040577 252.373576 
L 272.515298 246.253041 
L 267.584627 239.634573 
L 263.09191 232.742134 
L 258.900703 225.692404 
" clip-path="url(#pe6376d1074)" style="fill: none; stroke: #333333; stroke-width: 0.6"/>
    <path d="M 339.709938 266.364439 
L 339.401558 266.329039 
L 331.107824 265.2634 
L 322.852754 263.942165 
L 314.661132 262.288264 
L 306.574732 260.196007 
L 298.662385 257.525536 
" clip-path="url(#pe6376d1074)" style="fill: none; stroke: #333333; stroke-width: 0.6"/>
    <path d="M 339.709938 257.713833 
L 339.407412 257.680743 
L 331.107824 256.661287 
L 322.843794 255.395662 
L 314.635772 253.821778 
L 306.517282 251.852183 
L 298.541567 249.370947 
L 290.805745 246.25025 
L 283.441645 242.398722 
L 276.565887 237.760833 
L 270.272086 232.384674 
" clip-path="url(#pe6376d1074)" style="fill: none; stroke: #333333; stroke-width: 0.6"/>
    <path d="M 339.709938 249.008104 
L 339.418991 248.979512 
L 331.107824 248.059173 
L 322.826751 246.908605 
L 314.593371 245.468239 
L 306.434189 243.667593 
L 298.389903 241.41273 
L 290.535679 238.592967 
L 282.983388 235.095881 
L 275.844646 230.861058 
L 269.215144 225.880994 
" clip-path="url(#pe6376d1074)" style="fill: none; stroke: #333333; stroke-width: 0.6"/>
    <path d="M 339.709938 231.482325 
L 339.447174 231.465782 
L 331.107824 230.854947 
L 322.785626 230.054961 
L 314.491032 229.020225 
L 306.240407 227.690753 
L 298.058636 225.987638 
L 289.990896 223.823124 
L 282.109929 221.109982 
L 274.50979 217.747168 
L 267.27644 213.634395 
L 260.537048 208.828103 
L 254.344911 203.42088 
L 248.634562 197.528543 
L 243.351152 191.345243 
" clip-path="url(#pe6376d1074)" style="fill: none; stroke: #333333; stroke-width: 0.6"/>
    <path d="M 339.709938 222.672789 
L 339.459516 222.662804 
L 331.107824 222.252833 
L 322.767204 221.673512 
L 314.445282 220.885397 
L 306.154069 219.83685 
" clip-path="url(#pe6376d1074)" style="fill: none; stroke: #333333; stroke-width: 0.6"/>
    <path d="M 339.709938 213.837646 
L 339.468018 213.834317 
L 331.107824 213.65072 
L 322.753091 213.316553 
L 314.409077 212.797607 
L 306.084248 212.049276 
L 297.791891 211.013072 
L 289.556755 209.614811 
L 281.422102 207.761989 
L 273.452442 205.341075 
" clip-path="url(#pe6376d1074)" style="fill: none; stroke: #333333; stroke-width: 0.6"/>
    <path d="M 339.709938 204.976556 
L 339.470113 204.980243 
L 331.107824 205.048607 
L 322.745965 204.984326 
L 314.387554 204.756562 
L 306.037718 204.324936 
L 297.705668 203.639893 
L 289.409088 202.637439 
" clip-path="url(#pe6376d1074)" style="fill: none; stroke: #333333; stroke-width: 0.6"/>
    <path d="M 339.709938 196.089934 
L 339.462595 196.101677 
L 331.107824 196.446493 
L 322.74974 196.677362 
L 314.389791 196.767937 
L 306.030797 196.683797 
L 297.677764 196.379394 
L 289.341219 195.794516 
L 281.041664 194.8495 
L 272.815234 193.441855 
L 264.728687 191.459176 
L 256.870126 188.76619 
L 249.389219 185.260595 
L 242.456467 180.966318 
L 236.06485 175.939045 
" clip-path="url(#pe6376d1074)" style="fill: none; stroke: #333333; stroke-width: 0.6"/>
    <path d="M 339.709938 187.186808 
L 339.444926 187.208432 
L 331.107824 187.84438 
L 322.764509 188.383308 
L 314.415149 188.802636 
L 306.060707 189.072985 
L 297.703515 189.155569 
L 289.34966 188.998671 
L 281.012511 188.533182 
L 272.717234 187.666288 
" clip-path="url(#pe6376d1074)" style="fill: none; stroke: #333333; stroke-width: 0.6"/>
    <path d="M 339.709938 178.269054 
L 339.416025 178.303591 
L 331.107824 179.242267 
L 322.79115 180.099004 
L 314.465039 180.854344 
L 306.128808 181.483066 
L 297.782387 181.951943 
L 289.427835 182.21622 
L 281.071795 182.215618 
L 272.729331 181.86842 
L 264.43167 181.062966 
L 256.235428 179.649047 
" clip-path="url(#pe6376d1074)" style="fill: none; stroke: #333333; stroke-width: 0.6"/>
    <path d="M 339.709938 169.338277 
L 339.375101 169.390188 
L 331.107824 170.640153 
L 322.830242 171.821409 
L 314.5403 172.917049 
L 306.237029 173.90757 
L 297.920293 174.767781 
" clip-path="url(#pe6376d1074)" style="fill: none; stroke: #333333; stroke-width: 0.6"/>
    <path d="M 339.709938 151.440781 
L 339.254203 151.547562 
L 331.107824 153.435927 
L 322.952668 155.282803 
L 314.787328 157.0781 
L 306.608538 158.806662 
L 298.412155 160.448377 
L 290.192757 161.974801 
L 281.945953 163.349963 
L 273.671398 164.52832 
L 265.37054 165.440184 
L 257.047669 165.974591 
L 248.732784 165.960612 
L 240.523766 165.144979 
L 232.633196 163.197807 
L 225.950929 160.273358 
L 220.943929 157.204165 
L 216.765083 153.912713 
L 216.765083 153.912713 
" clip-path="url(#pe6376d1074)" style="fill: none; stroke: #333333; stroke-width: 0.6"/>
    <path d="M 339.709938 133.495413 
L 339.075904 133.697877 
L 331.107824 136.2317 
L 323.132979 138.74187 
L 315.147223 141.219214 
L 307.1486 143.655963 
L 299.136561 146.042796 
L 291.106608 148.361826 
L 283.050439 150.587377 
L 274.958038 152.686108 
L 266.826512 154.618062 
L 258.653432 156.316197 
L 250.431963 157.66414 
" clip-path="url(#pe6376d1074)" style="fill: none; stroke: #333333; stroke-width: 0.6"/>
    <path d="M 339.709938 124.510283 
L 338.968165 124.779958 
L 331.107824 127.629587 
L 323.240687 130.461065 
L 315.364706 133.26898 
L 307.48004 136.04919 
L 299.583323 138.791462 
" clip-path="url(#pe6376d1074)" style="fill: none; stroke: #333333; stroke-width: 0.6"/>
    <path d="M 339.709938 115.51854 
L 338.849824 115.870013 
L 331.107824 119.027473 
L 323.359966 122.17208 
L 315.606645 125.301548 
L 307.846784 128.411842 
L 300.073428 131.491581 
L 292.285046 134.53181 
L 284.480425 137.522249 
L 276.649476 140.442593 
L 268.781447 143.264256 
L 260.87091 145.949979 
L 252.9057 148.438902 
L 244.857149 150.622335 
L 236.685137 152.297994 
L 228.458041 153.06401 
L 228.458041 153.06401 
" clip-path="url(#pe6376d1074)" style="fill: none; stroke: #333333; stroke-width: 0.6"/>
    <path d="M 339.709938 106.520766 
L 338.722096 106.969731 
L 331.107824 110.42536 
L 323.49044 113.873719 
L 315.870285 117.312999 
L 308.242705 120.737715 
" clip-path="url(#pe6376d1074)" style="fill: none; stroke: #333333; stroke-width: 0.6"/>
    <path d="M 339.709938 97.515245 
L 338.584489 98.079166 
L 331.107824 101.823247 
L 323.630171 105.563913 
L 316.149982 109.298562 
L 308.664932 113.024638 
" clip-path="url(#pe6376d1074)" style="fill: none; stroke: #333333; stroke-width: 0.6"/>
    <path d="M 339.709938 88.50381 
L 338.439373 89.200442 
L 331.107824 93.221133 
L 323.776784 97.240939 
L 316.443077 101.256857 
L 309.107317 105.268728 
" clip-path="url(#pe6376d1074)" style="fill: none; stroke: #333333; stroke-width: 0.6"/>
    <path d="M 339.709938 79.487055 
L 338.288493 80.334649 
L 331.107824 84.61902 
L 323.928005 88.903709 
L 316.747667 93.187408 
L 309.567015 97.469769 
" clip-path="url(#pe6376d1074)" style="fill: none; stroke: #333333; stroke-width: 0.6"/>
    <path d="M 339.709938 61.437472 
L 337.974172 62.643307 
L 331.107824 67.414793 
L 324.242819 72.187788 
L 317.379272 76.962377 
L 310.515946 81.737609 
L 303.652406 86.511392 
L 296.78693 91.28272 
L 289.919261 96.0504 
L 283.045708 100.809409 
L 276.166192 105.558977 
L 269.277288 110.294174 
L 262.374619 115.00653 
L 255.45374 119.689669 
L 248.504919 124.328783 
L 241.516056 128.898204 
L 234.462068 133.360475 
L 227.314563 137.635604 
L 219.943876 141.497205 
L 219.943876 141.497205 
L 215.045567 143.532737 
L 215.045567 143.532737 
" clip-path="url(#pe6376d1074)" style="fill: none; stroke: #333333; stroke-width: 0.6"/>
    <path d="M 339.709938 43.372297 
L 337.653108 45.007088 
L 331.107824 50.210567 
L 324.564215 55.415632 
L 318.022132 60.622653 
L 311.481282 65.83106 
L 304.940873 71.039212 
L 298.401117 76.24858 
L 291.860721 81.456692 
L 285.318899 86.661693 
L 278.774908 91.864141 
L 272.227108 97.060435 
L 265.673604 102.248806 
L 259.112371 107.426371 
L 252.538449 112.585186 
L 245.949055 117.723052 
L 239.333008 122.823382 
L 232.679189 127.862631 
" clip-path="url(#pe6376d1074)" style="fill: none; stroke: #333333; stroke-width: 0.6"/>
    <path d="M 339.709938 25.293337 
L 337.333156 27.423752 
L 331.107824 33.00634 
L 324.88327 38.589584 
L 318.660022 44.174488 
L 312.437895 49.760241 
L 306.216313 55.345878 
L 299.995743 60.932505 
L 293.775219 66.518645 
L 287.555406 72.105627 
L 281.334845 77.69157 
L 275.113561 83.275097 
L 268.890425 88.856972 
L 262.665268 94.434824 
L 256.43608 100.009423 
L 250.202468 105.577062 
L 243.959024 111.131799 
" clip-path="url(#pe6376d1074)" style="fill: none; stroke: #333333; stroke-width: 0.6"/>
    <path d="M 339.709938 16.248247 
L 337.175547 18.65072 
L 331.107824 24.404227 
L 325.040949 30.158075 
L 318.974707 35.913064 
L 312.909235 41.668447 
L 306.843628 47.423345 
L 300.778767 53.178831 
" clip-path="url(#pe6376d1074)" style="fill: none; stroke: #333333; stroke-width: 0.6"/>
    <path d="M 339.709938 7.2 
L 337.020543 9.889395 
L 331.107824 15.802113 
L 325.195324 21.714614 
L 319.282515 27.627422 
L 313.36985 33.540088 
L 307.457444 39.452494 
L 301.545063 45.364875 
" clip-path="url(#pe6376d1074)" style="fill: none; stroke: #333333; stroke-width: 0.6"/>
    <path d="M 330.66169 7.2 
L 328.259218 9.73439 
L 322.505711 15.802113 
L 316.751863 21.868989 
L 310.996873 27.93523 
L 305.24149 34.000703 
L 299.486592 40.06631 
" clip-path="url(#pe6376d1074)" style="fill: none; stroke: #333333; stroke-width: 0.6"/>
    <path d="M 321.6166 7.2 
L 319.486185 9.576782 
L 313.903598 15.802113 
L 308.320353 22.026667 
L 302.735449 28.249916 
L 297.149696 34.472042 
L 291.56406 40.693624 
L 285.977432 46.914194 
L 280.391292 53.134719 
L 274.80431 59.354532 
L 269.218367 65.575093 
L 263.634841 71.796377 
L 258.052965 78.019513 
L 252.475113 84.244669 
L 246.900514 90.473857 
L 241.332875 96.707469 
L 235.778138 102.950913 
L 230.235795 109.203178 
L 224.719322 115.472513 
L 219.234487 121.763299 
L 213.830038 128.100813 
L 208.650067 134.500348 
L 208.650067 134.500348 
L 206.659661 137.150068 
L 206.659661 137.150068 
" clip-path="url(#pe6376d1074)" style="fill: none; stroke: #333333; stroke-width: 0.6"/>
    <path d="M 312.5759 7.2 
L 310.701037 9.417676 
L 305.301484 15.802113 
L 299.90079 22.185322 
L 294.498164 28.56692 
L 289.094509 34.947661 
L 283.690836 41.327613 
" clip-path="url(#pe6376d1074)" style="fill: none; stroke: #333333; stroke-width: 0.6"/>
    <path d="M 294.502456 7.2 
L 293.091244 9.095372 
L 288.097258 15.802113 
L 283.101486 22.50709 
L 278.103824 29.21052 
L 273.104806 35.91286 
L 268.10646 42.614995 
L 263.108078 49.317195 
L 258.111867 56.020661 
L 253.12091 62.726964 
L 248.134235 69.436699 
L 243.157178 76.152842 
L 238.195476 82.87828 
L 233.250788 89.616226 
L 228.334802 96.37266 
L 223.462236 103.157475 
L 218.649176 109.980471 
L 213.945436 116.873073 
" clip-path="url(#pe6376d1074)" style="fill: none; stroke: #333333; stroke-width: 0.6"/>
    <path d="M 276.445847 7.2 
L 275.428009 8.777399 
L 270.893031 15.802113 
L 266.357365 22.826434 
L 261.820943 29.849917 
L 257.284817 36.873761 
L 252.751795 43.89909 
L 248.223349 50.926392 
L 243.701619 57.95831 
L 239.191524 64.996346 
L 234.699104 72.045646 
L 230.227501 79.107354 
L 225.790908 86.1914 
L 221.40281 93.302651 
" clip-path="url(#pe6376d1074)" style="fill: none; stroke: #333333; stroke-width: 0.6"/>
    <path d="M 258.406127 7.2 
L 257.709495 8.470565 
L 253.688804 15.802113 
L 249.668999 23.133153 
L 245.65308 30.466861 
L 241.64121 37.802621 
L 237.637996 45.142245 
L 233.649176 52.489494 
L 229.676698 59.844506 
L 225.731273 67.215304 
L 221.823059 74.604447 
L 217.963398 82.015553 
L 214.175515 89.465044 
L 210.493059 96.961765 
L 206.97436 104.529031 
L 203.72495 112.210688 
L 200.981007 120.019802 
L 200.981007 120.019802 
L 199.489321 126.453866 
L 199.489321 126.453866 
L 199.141024 130.575789 
L 199.141024 130.575789 
" clip-path="url(#pe6376d1074)" style="fill: none; stroke: #333333; stroke-width: 0.6"/>
    <path d="M 240.389172 7.2 
L 239.940207 8.187842 
L 236.484578 15.802113 
L 233.036219 23.419497 
L 229.596938 31.039652 
L 226.172222 38.667232 
L 222.767804 46.303809 
L 219.390762 53.95031 
L 216.052936 61.614613 
L 212.765368 69.300643 
L 209.547075 77.012144 
L 206.431869 84.764672 
L 203.462993 92.57449 
L 200.706333 100.450448 
" clip-path="url(#pe6376d1074)" style="fill: none; stroke: #333333; stroke-width: 0.6"/>
    <path d="M 231.391397 7.2 
L 231.039924 8.060113 
L 227.882464 15.802113 
L 224.737858 23.549971 
L 221.608389 31.303292 
L 218.498095 39.063153 
" clip-path="url(#pe6376d1074)" style="fill: none; stroke: #333333; stroke-width: 0.6"/>
    <path d="M 222.399655 7.2 
L 222.129979 7.941772 
L 219.280351 15.802113 
L 216.448873 23.669251 
L 213.640958 31.545231 
L 210.860747 39.429897 
L 208.118476 47.326614 
L 205.431514 55.243423 
L 202.815398 63.1838 
L 200.289607 71.149656 
L 197.890607 79.151035 
L 195.678443 87.2062 
L 193.739971 95.331196 
L 192.212721 103.523619 
L 191.356724 111.749681 
L 191.666598 119.824355 
L 191.666598 119.824355 
" clip-path="url(#pe6376d1074)" style="fill: none; stroke: #333333; stroke-width: 0.6"/>
    <path d="M 213.414524 7.2 
L 213.21206 7.834034 
L 210.678238 15.802113 
L 208.168067 23.776958 
L 205.690724 31.762715 
L 203.253975 39.761338 
L 200.867142 47.773376 
" clip-path="url(#pe6376d1074)" style="fill: none; stroke: #333333; stroke-width: 0.6"/>
    <path d="M 204.43666 7.2 
L 204.288161 7.737976 
L 202.076124 15.802113 
L 199.894839 23.873302 
L 197.754691 31.95489 
L 195.668719 40.051167 
L 193.652233 48.1659 
L 191.723491 56.300508 
L 189.909695 64.458035 
L 188.252138 72.645358 
L 186.810974 80.870556 
L 185.678729 89.141401 
L 185.001211 97.456103 
L 185.009967 105.772 
L 186.048652 113.898164 
L 186.048652 113.898164 
L 187.72333 119.902756 
" clip-path="url(#pe6376d1074)" style="fill: none; stroke: #333333; stroke-width: 0.6"/>
    <path d="M 186.514082 7.2 
L 186.438753 7.588275 
L 184.871898 15.802113 
L 183.360709 24.02683 
L 181.915959 32.262812 
L 180.553457 40.511239 
L 179.296693 48.774843 
L 178.178555 57.056564 
L 177.243728 65.358687 
L 176.553318 73.681293 
L 176.195163 82.019084 
L 176.298257 90.355154 
L 177.04749 98.627688 
L 178.675722 106.670574 
" clip-path="url(#pe6376d1074)" style="fill: none; stroke: #333333; stroke-width: 0.6"/>
    <path d="M 168.640883 7.2 
L 168.606346 7.493913 
L 167.667671 15.802113 
L 166.810933 24.118788 
L 166.055594 32.444899 
L 165.426872 40.78113 
L 164.957994 49.127551 
L 164.693717 57.482102 
L 164.694319 65.838142 
L 165.041517 74.180607 
L 165.846972 82.478267 
L 167.260891 90.674509 
L 169.457599 98.649904 
" clip-path="url(#pe6376d1074)" style="fill: none; stroke: #333333; stroke-width: 0.6"/>
    <path d="M 159.723129 7.2 
L 159.701506 7.465011 
L 159.065558 15.802113 
L 158.52663 24.145428 
L 158.107301 32.494788 
L 157.836952 40.849231 
L 157.754368 49.206423 
L 157.911267 57.560278 
L 158.376755 65.897427 
L 159.243649 74.192704 
L 160.635847 82.401965 
L 162.716372 90.462497 
" clip-path="url(#pe6376d1074)" style="fill: none; stroke: #333333; stroke-width: 0.6"/>
    <path d="M 150.820004 7.2 
L 150.80826 7.447342 
L 150.463444 15.802113 
L 150.232575 24.160197 
L 150.142 32.520146 
L 150.226141 40.879141 
L 150.530544 49.232173 
L 151.115421 57.568718 
L 152.060437 65.868273 
L 153.468083 74.094703 
" clip-path="url(#pe6376d1074)" style="fill: none; stroke: #333333; stroke-width: 0.6"/>
    <path d="M 141.933382 7.2 
L 141.929695 7.439825 
L 141.861331 15.802113 
L 141.925612 24.163972 
L 142.153375 32.522383 
L 142.585001 40.872219 
L 143.270045 49.204269 
L 144.272498 57.50085 
L 145.675376 65.729812 
" clip-path="url(#pe6376d1074)" style="fill: none; stroke: #333333; stroke-width: 0.6"/>
    <path d="M 133.072291 7.2 
L 133.07562 7.44192 
L 133.259218 15.802113 
L 133.593384 24.156847 
L 134.11233 32.500861 
L 134.860662 40.82569 
L 135.896866 49.118046 
L 137.295126 57.353183 
" clip-path="url(#pe6376d1074)" style="fill: none; stroke: #333333; stroke-width: 0.6"/>
    <path d="M 124.237149 7.2 
L 124.247134 7.450421 
L 124.657104 15.802113 
L 125.236426 24.142734 
L 126.024541 32.464655 
L 127.073088 40.755868 
L 128.449891 48.997935 
" clip-path="url(#pe6376d1074)" style="fill: none; stroke: #333333; stroke-width: 0.6"/>
    <path d="M 115.427612 7.2 
L 115.444156 7.462764 
L 116.054991 15.802113 
L 116.854976 24.124311 
L 117.889713 32.418906 
L 119.219184 40.66953 
" clip-path="url(#pe6376d1074)" style="fill: none; stroke: #333333; stroke-width: 0.6"/>
    <path d="M 106.647595 7.2 
L 106.670472 7.476967 
L 107.452878 15.802113 
L 108.444906 24.103675 
L 109.699395 32.367813 
L 111.286247 40.572737 
L 113.286182 48.686651 
L 115.787487 56.651778 
L 118.895487 64.377533 
L 122.712103 71.758266 
L 127.267494 78.699823 
L 132.494764 85.102519 
L 138.27455 90.976242 
L 144.450077 96.385579 
" clip-path="url(#pe6376d1074)" style="fill: none; stroke: #333333; stroke-width: 0.6"/>
    <path d="M 89.196105 7.2 
L 89.229195 7.502526 
L 90.248651 15.802113 
L 91.514276 24.066144 
L 93.088159 32.274165 
L 95.057754 40.392655 
L 97.538991 48.368371 
L 100.659688 56.104192 
L 104.511216 63.468292 
L 109.149104 70.344051 
L 114.525263 76.637852 
L 120.472691 82.328574 
L 126.849381 87.518904 
" clip-path="url(#pe6376d1074)" style="fill: none; stroke: #333333; stroke-width: 0.6"/>
    <path d="M 80.545498 7.2 
L 80.580898 7.50838 
L 81.646538 15.802113 
L 82.967772 24.057184 
L 84.621673 32.248806 
L 86.71393 40.335206 
L 89.384402 48.247553 
L 92.768177 55.864518 
" clip-path="url(#pe6376d1074)" style="fill: none; stroke: #333333; stroke-width: 0.6"/>
    <path d="M 71.959915 7.2 
L 71.994426 7.506408 
L 73.044424 15.802113 
L 74.35946 24.058053 
L 76.029397 32.245832 
L 78.181908 40.314617 
L 80.987062 48.176967 
L 84.594547 55.679648 
" clip-path="url(#pe6376d1074)" style="fill: none; stroke: #333333; stroke-width: 0.6"/>
    <path d="M 63.444042 7.2 
L 63.474587 7.496598 
L 64.442311 15.802113 
L 65.674141 24.070602 
L 67.273736 32.27168 
L 69.397067 40.345842 
L 72.249955 48.187236 
L 76.035068 55.584774 
" clip-path="url(#pe6376d1074)" style="fill: none; stroke: #333333; stroke-width: 0.6"/>
    <path d="M 55.012638 7.2 
L 55.036291 7.479698 
L 55.840198 15.802113 
L 56.887518 24.095505 
L 58.29284 32.331673 
L 60.240484 40.44842 
L 63.003576 48.317083 
L 66.903661 55.623167 
" clip-path="url(#pe6376d1074)" style="fill: none; stroke: #333333; stroke-width: 0.6"/>
    <path d="M 46.68473 7.2 
L 46.699181 7.458813 
L 47.238084 15.802113 
L 47.962597 24.130051 
L 48.981934 32.424837 
L 50.49164 40.635961 
L 52.876772 48.619585 
L 52.876772 48.619585 
L 55.671606 54.358147 
" clip-path="url(#pe6376d1074)" style="fill: none; stroke: #333333; stroke-width: 0.6"/>
    <path d="M 43.089884 109.183369 
L 44.053125 100.906996 
L 45.340503 92.688935 
L 47.238084 84.61902 
L 47.238084 84.61902 
L 49.704918 78.39045 
L 49.704918 78.39045 
L 52.185417 74.805781 
L 52.185417 74.805781 
L 55.086636 72.516746 
" clip-path="url(#pe6376d1074)" style="fill: none; stroke: #333333; stroke-width: 0.6"/>
    <path d="M 43.549932 152.208748 
L 44.291376 143.893639 
L 45.13067 135.58852 
L 46.097857 127.297526 
L 47.238084 119.027473 
" clip-path="url(#pe6376d1074)" style="fill: none; stroke: #333333; stroke-width: 0.6"/>
    <path d="M 42.981271 203.564856 
L 43.710697 195.249865 
L 44.490987 186.938719 
L 45.331189 178.63225 
L 46.242207 170.331531 
L 47.238084 162.03804 
" clip-path="url(#pe6376d1074)" style="fill: none; stroke: #333333; stroke-width: 0.6"/>
    <path d="M 44.764955 281.761481 
L 47.238084 273.865513 
L 49.800247 265.937581 
L 52.429863 258.022474 
L 55.125133 250.138322 
L 57.906925 242.274295 
L 60.781902 234.432011 
L 63.745927 226.623793 
L 66.810316 218.856547 
L 69.997287 211.131428 
L 73.307761 203.456634 
L 76.748089 195.843038 
L 80.350731 188.300733 
L 84.126993 180.842946 
L 88.089598 173.485252 
L 92.277392 166.251743 
L 96.720369 159.173049 
L 101.456398 152.286553 
L 106.531632 145.647907 
L 112.00521 139.338482 
L 117.934563 133.46017 
L 124.378737 128.17409 
L 131.389408 123.689103 
L 138.939595 120.266921 
L 146.701866 118.199813 
L 153.926777 117.518455 
L 160.950698 117.947515 
" clip-path="url(#pe6376d1074)" style="fill: none; stroke: #333333; stroke-width: 0.6"/>
    <path d="M 81.646538 291.06974 
L 89.208035 287.546621 
L 96.742138 283.944213 
L 104.235197 280.273334 
L 111.694835 276.51405 
L 119.111974 272.666073 
L 126.476785 268.723704 
L 133.787338 264.674358 
L 141.036684 260.516194 
L 148.21302 256.229343 
L 155.307059 251.805746 
L 162.308063 247.238152 
L 169.197432 242.502519 
L 175.954874 237.581158 
L 182.556194 232.451974 
L 188.963577 227.083729 
L 195.132661 221.444357 
L 200.995041 215.490135 
L 206.456824 209.172811 
L 211.383345 202.442934 
L 215.574214 195.246607 
L 218.720542 187.603955 
L 220.423382 179.933504 
L 220.659578 173.111156 
L 219.795925 167.11323 
" clip-path="url(#pe6376d1074)" style="fill: none; stroke: #333333; stroke-width: 0.6"/>
    <path d="M 228.439412 293.253371 
L 236.484578 291.06974 
L 244.346798 288.305488 
L 251.795999 284.6348 
L 251.795999 284.6348 
L 257.048977 280.805622 
L 257.048977 280.805622 
L 260.607207 276.796834 
L 263.073316 272.057327 
" clip-path="url(#pe6376d1074)" style="fill: none; stroke: #333333; stroke-width: 0.6"/>
    <path d="M 52.80574 90.843347 
L 55.840198 84.61902 
L 55.840198 84.61902 
L 55.840198 84.61902 
L 58.954844 80.657487 
L 58.954844 80.657487 
L 62.409835 78.063199 
L 66.351821 76.534105 
L 70.589572 75.944972 
L 75.550851 76.115006 
" clip-path="url(#pe6376d1074)" style="fill: none; stroke: #333333; stroke-width: 0.6"/>
    <path d="M 51.853097 126.617152 
L 53.656567 118.470525 
L 55.840198 110.42536 
L 58.604449 102.56314 
L 62.275138 95.113938 
L 62.275138 95.113938 
L 66.104316 89.860961 
L 66.104316 89.860961 
L 70.113104 86.30273 
L 74.852611 83.836622 
L 79.755481 82.591529 
L 85.081873 82.256112 
L 91.152201 82.744033 
L 98.343153 84.129355 
" clip-path="url(#pe6376d1074)" style="fill: none; stroke: #333333; stroke-width: 0.6"/>
    <path d="M 52.517722 169.802362 
L 54.101966 161.603182 
L 55.840198 153.435927 
L 57.774307 145.310598 
L 59.958029 137.243939 
L 62.447939 129.270147 
L 65.332155 121.440522 
L 68.773256 113.843786 
L 72.987313 106.665636 
L 78.231075 100.250895 
L 78.231075 100.250895 
L 83.140277 96.166076 
L 88.81373 93.179498 
L 94.60022 91.522818 
L 100.717159 90.893923 
L 107.350662 91.182036 
" clip-path="url(#pe6376d1074)" style="fill: none; stroke: #333333; stroke-width: 0.6"/>
    <path d="M 53.704324 230.319598 
L 55.840198 222.252833 
L 58.075081 214.206333 
L 60.421089 206.185113 
L 62.883961 198.200661 
L 65.476093 190.260734 
L 68.222246 182.370479 
L 71.146911 174.540867 
L 74.271395 166.790737 
L 77.630883 159.141758 
L 81.273763 151.620793 
L 85.246554 144.270906 
L 89.623014 137.157628 
L 94.485786 130.371004 
L 99.928727 124.050512 
L 106.050633 118.411973 
L 112.904654 113.72802 
L 120.246633 110.371978 
L 127.414331 108.50803 
L 134.424834 107.84879 
L 141.660671 108.205762 
L 149.233401 109.549253 
" clip-path="url(#pe6376d1074)" style="fill: none; stroke: #333333; stroke-width: 0.6"/>
    <path d="M 47.895345 288.423799 
L 51.8402 281.136881 
L 55.840198 273.865513 
L 59.912157 266.595254 
L 64.047622 259.34558 
L 68.242308 252.135077 
L 72.506348 244.955056 
L 76.835484 237.812913 
L 81.244005 230.715828 
L 85.731109 223.665762 
L 90.302652 216.668339 
L 94.968007 209.731535 
L 99.729433 202.860935 
L 104.597812 196.064333 
L 109.584503 189.354153 
L 114.700555 182.741286 
L 119.959978 176.241831 
L 125.383737 169.878781 
L 130.989279 163.675338 
L 136.805758 157.670564 
L 142.86802 151.915565 
L 149.217183 146.484783 
L 155.905024 141.487648 
L 162.997471 137.12774 
L 170.552317 133.710385 
L 170.552317 133.710385 
L 176.856957 131.94888 
L 176.856957 131.94888 
" clip-path="url(#pe6376d1074)" style="fill: none; stroke: #333333; stroke-width: 0.6"/>
    <path d="M 66.479283 287.594431 
L 73.044424 282.467627 
L 79.601632 277.313716 
L 86.14372 272.125349 
L 92.661678 266.90657 
L 99.160488 261.654876 
L 105.632783 256.369957 
L 112.079537 251.04953 
L 118.497993 245.694173 
L 124.882306 240.297074 
L 131.234138 234.860891 
L 137.547221 229.378555 
L 143.817775 223.847478 
L 150.041605 218.262912 
L 156.210999 212.618164 
L 162.320608 206.90816 
L 168.359141 201.123019 
L 174.312289 195.249916 
L 180.163212 189.275445 
L 185.880029 183.174007 
L 191.424676 176.918006 
L 196.721881 170.461191 
L 201.607639 163.710071 
L 205.623208 156.60736 
L 205.623208 156.60736 
" clip-path="url(#pe6376d1074)" style="fill: none; stroke: #333333; stroke-width: 0.6"/>
    <path d="M 116.054991 282.467627 
L 123.758019 279.244794 
L 131.42011 275.91029 
L 139.030416 272.459581 
L 146.579479 268.879429 
L 154.060682 265.152499 
L 161.461525 261.269243 
L 168.764242 257.203749 
L 175.950589 252.933765 
L 182.997541 248.440065 
L 189.867996 243.680651 
L 196.517056 238.618626 
L 202.884309 233.208622 
L 208.876625 227.392575 
L 214.378531 221.115556 
L 219.199101 214.321118 
L 223.109833 206.988949 
L 225.844484 199.180964 
L 227.122314 191.59464 
L 227.137977 184.619074 
" clip-path="url(#pe6376d1074)" style="fill: none; stroke: #333333; stroke-width: 0.6"/>
    <path d="M 177.951462 289.256378 
L 186.05274 287.200143 
L 194.101859 284.949688 
L 202.076124 282.467627 
L 209.948235 279.684927 
L 217.675168 276.511976 
L 225.177836 272.851168 
L 232.313694 268.546771 
L 238.833395 263.393074 
L 244.34599 257.212826 
L 247.969906 250.900825 
L 250.022981 244.730258 
L 250.94125 238.479033 
" clip-path="url(#pe6376d1074)" style="fill: none; stroke: #333333; stroke-width: 0.6"/>
    <path d="M 64.442311 273.865513 
L 69.596221 267.308305 
L 74.784588 260.766218 
L 80.003368 254.24826 
L 85.255061 247.74945 
L 90.539981 241.277155 
L 95.860407 234.830401 
L 101.215765 228.411944 
L 106.612863 222.027631 
L 112.049046 215.675799 
L 117.531382 209.362717 
L 123.062459 203.092163 
L 128.647026 196.868333 
L 134.291774 190.698938 
L 140.001778 184.589329 
L 145.786919 178.550797 
L 151.660021 172.597648 
L 157.634493 166.746725 
L 163.735931 161.029908 
L 169.991932 155.485262 
L 176.448746 150.188057 
L 183.199867 145.302298 
L 190.302577 141.28673 
L 190.302577 141.28673 
" clip-path="url(#pe6376d1074)" style="fill: none; stroke: #333333; stroke-width: 0.6"/>
    <path d="M 73.044424 230.854947 
L 76.974971 223.484604 
L 81.008483 216.165258 
L 85.151146 208.906123 
L 89.411711 201.715886 
L 93.800543 194.601202 
L 98.329375 187.575578 
L 103.019799 180.655673 
L 107.88215 173.855357 
L 112.943387 167.201758 
L 118.229856 160.725952 
L 123.769119 154.466144 
L 129.603477 148.48337 
L 135.773348 142.849809 
L 142.336923 137.69457 
L 149.346474 133.180104 
L 156.810981 129.569869 
L 164.66366 127.232872 
L 171.77373 126.47222 
L 177.99827 126.937929 
" clip-path="url(#pe6376d1074)" style="fill: none; stroke: #333333; stroke-width: 0.6"/>
    <path d="M 202.076124 265.2634 
L 209.338283 261.138195 
L 216.30724 256.538822 
L 222.853513 251.364327 
L 228.771669 245.504811 
L 233.792399 238.882917 
L 237.564124 231.576271 
L 239.718699 224.533713 
" clip-path="url(#pe6376d1074)" style="fill: none; stroke: #333333; stroke-width: 0.6"/>
    <path d="M 296.699371 119.027473 
L 289.189543 122.701591 
L 281.665573 126.343081 
L 274.121003 129.938887 
L 266.546618 133.472756 
L 258.936589 136.919577 
L 251.271159 140.23336 
L 243.522738 143.344377 
L 235.677483 146.131983 
L 227.718863 148.304297 
L 227.718863 148.304297 
" clip-path="url(#pe6376d1074)" style="fill: none; stroke: #333333; stroke-width: 0.6"/>
    <path d="M 296.699371 101.823247 
L 289.583275 106.211003 
L 282.457957 110.583589 
L 275.32182 114.937144 
L 268.172164 119.265849 
L 260.999061 123.554292 
L 253.796924 127.787105 
L 246.544894 131.939016 
" clip-path="url(#pe6376d1074)" style="fill: none; stroke: #333333; stroke-width: 0.6"/>
    <path d="M 98.850764 256.661287 
L 105.096912 251.109476 
L 111.328728 245.538878 
L 117.542142 239.945386 
L 123.73294 234.327727 
" clip-path="url(#pe6376d1074)" style="fill: none; stroke: #333333; stroke-width: 0.6"/>
    <path d="M 184.871898 256.661287 
L 191.993443 252.285828 
L 198.903527 247.588835 
L 205.540557 242.5149 
L 211.810983 237.000615 
L 217.578585 230.974444 
L 222.662203 224.374365 
L 226.816599 217.180597 
L 229.766662 209.475273 
L 231.257799 202.049768 
" clip-path="url(#pe6376d1074)" style="fill: none; stroke: #333333; stroke-width: 0.6"/>
    <path d="M 288.097258 170.640153 
L 279.776509 171.409304 
L 271.437342 171.903691 
L 263.090266 172.025065 
L 254.765664 171.631289 
L 246.532674 170.520599 
L 238.593669 168.464242 
" clip-path="url(#pe6376d1074)" style="fill: none; stroke: #333333; stroke-width: 0.6"/>
    <path d="M 288.097258 58.81268 
L 282.185129 64.724808 
L 276.27347 70.636467 
L 270.361939 76.547999 
L 264.451279 82.458658 
L 258.540452 88.369486 
L 252.63068 94.279258 
L 246.720085 100.189852 
L 240.810888 106.09905 
L 234.903031 112.006906 
" clip-path="url(#pe6376d1074)" style="fill: none; stroke: #333333; stroke-width: 0.6"/>
    <path d="M 80.790313 132.748269 
L 85.19817 125.660189 
L 90.248651 119.027473 
L 96.077972 113.087074 
L 102.756987 108.194887 
" clip-path="url(#pe6376d1074)" style="fill: none; stroke: #333333; stroke-width: 0.6"/>
    <path d="M 90.248651 153.435927 
L 94.740047 146.388881 
L 99.622076 139.611667 
L 104.965806 133.195162 
L 110.851983 127.285282 
L 117.349948 122.065277 
L 124.471962 117.806716 
L 132.09269 114.805467 
" clip-path="url(#pe6376d1074)" style="fill: none; stroke: #333333; stroke-width: 0.6"/>
    <path d="M 90.248651 248.059173 
L 95.800462 241.813026 
L 101.37106 235.58121 
L 106.964551 229.367795 
L 112.582211 223.176998 
" clip-path="url(#pe6376d1074)" style="fill: none; stroke: #333333; stroke-width: 0.6"/>
    <path d="M 124.657104 248.059173 
L 131.236299 242.902102 
L 137.765413 237.680797 
L 144.238488 232.389246 
L 150.650802 227.023307 
L 156.992131 221.573148 
" clip-path="url(#pe6376d1074)" style="fill: none; stroke: #333333; stroke-width: 0.6"/>
    <path d="M 90.058181 184.857123 
L 94.35536 177.686647 
L 98.850764 170.640153 
L 103.571759 163.742002 
L 108.550646 157.028832 
L 113.827758 150.548662 
L 119.44499 144.363199 
L 125.455912 138.567401 
L 131.919334 133.286815 
L 138.876287 128.711695 
L 146.331878 125.085909 
" clip-path="url(#pe6376d1074)" style="fill: none; stroke: #333333; stroke-width: 0.6"/>
    <path d="M 93.75156 228.875031 
L 98.850764 222.252833 
L 104.007836 215.673638 
L 109.22914 209.144525 
L 114.520692 202.671449 
L 119.88663 196.259136 
L 125.33679 189.917806 
" clip-path="url(#pe6376d1074)" style="fill: none; stroke: #333333; stroke-width: 0.6"/>
    <path d="M 264.44376 63.215338 
L 259.064332 69.614886 
L 253.688804 76.016907 
L 248.320709 82.423674 
L 242.959142 88.835457 
" clip-path="url(#pe6376d1074)" style="fill: none; stroke: #333333; stroke-width: 0.6"/>
    <path d="M 141.861331 76.016907 
L 145.253756 83.586173 
L 149.393193 90.744581 
L 154.257384 97.403864 
L 159.650965 103.496351 
" clip-path="url(#pe6376d1074)" style="fill: none; stroke: #333333; stroke-width: 0.6"/>
    <path d="M 176.269784 230.854947 
L 182.693709 225.504168 
L 188.920501 219.926006 
L 194.904857 214.090152 
L 200.576652 207.954059 
L 205.83838 201.470223 
L 210.530872 194.579436 
L 214.440614 187.225727 
" clip-path="url(#pe6376d1074)" style="fill: none; stroke: #333333; stroke-width: 0.6"/>
    <path d="M 187.016605 236.162496 
L 193.474011 230.854947 
L 199.655302 225.231287 
L 205.48403 219.24577 
L 210.846323 212.850004 
" clip-path="url(#pe6376d1074)" style="fill: none; stroke: #333333; stroke-width: 0.6"/>
    <path d="M 116.054991 187.84438 
L 121.36407 181.384714 
L 126.807119 175.037023 
L 132.404412 168.825471 
L 138.173774 162.77319 
" clip-path="url(#pe6376d1074)" style="fill: none; stroke: #333333; stroke-width: 0.6"/>
    <path d="M 133.259218 222.252833 
L 139.322479 216.494601 
L 145.363241 210.712443 
L 151.379951 204.904544 
L 157.368638 199.067339 
L 163.328026 193.200063 
L 169.249475 187.294382 
L 175.124951 181.343266 
" clip-path="url(#pe6376d1074)" style="fill: none; stroke: #333333; stroke-width: 0.6"/>
    <path d="M 124.657104 213.65072 
L 130.415336 207.587458 
L 136.197495 201.546697 
L 142.005393 195.529987 
L 147.842598 189.541299 
L 153.709875 183.581911 
L 159.615555 177.660463 
L 165.566672 171.784986 
" clip-path="url(#pe6376d1074)" style="fill: none; stroke: #333333; stroke-width: 0.6"/>
    <path d="M 167.667671 213.65072 
L 173.788236 207.952838 
L 179.781905 202.122401 
L 185.615405 196.132433 
L 191.25103 189.957916 
L 196.613573 183.550437 
L 201.597648 176.854467 
L 205.989236 169.793396 
" clip-path="url(#pe6376d1074)" style="fill: none; stroke: #333333; stroke-width: 0.6"/>
    <path d="M 133.259218 179.242267 
L 138.957099 173.121702 
L 144.787536 167.128032 
L 150.777504 161.294533 
L 156.952021 155.658907 
L 163.3595 150.296365 
L 170.05547 145.31229 
L 177.116541 140.920702 
L 184.58556 137.672187 
L 184.58556 137.672187 
" clip-path="url(#pe6376d1074)" style="fill: none; stroke: #333333; stroke-width: 0.6"/>
   </g>
   <g id="patch_3">
    <path d="M 133.91315 212.996788 
Q 133.978015 212.931923 133.568538 213.3414 
" clip-path="url(#pe6376d1074)" style="fill: none; stroke: #333333; stroke-width: 0.6; stroke-linecap: round"/>
    <path d="M 130.174425 214.472771 
L 133.568538 213.3414 
L 132.437167 216.735513 
z
" clip-path="url(#pe6376d1074)" style="fill: #333333; stroke: #333333; stroke-width: 0.6; stroke-linecap: round"/>
   </g>
   <g id="patch_4">
    <path d="M 183.686586 264.679333 
Q 183.763955 264.639369 183.245317 264.907261 
" clip-path="url(#pe6376d1074)" style="fill: none; stroke: #333333; stroke-width: 0.6; stroke-linecap: round"/>
    <path d="M 179.667917 264.954253 
L 183.245317 264.907261 
L 181.13647 267.797376 
z
" clip-path="url(#pe6376d1074)" style="fill: #333333; stroke: #333333; stroke-width: 0.6; stroke-linecap: round"/>
   </g>
   <g id="patch_5">
    <path d="M 199.427223 294.141131 
Q 199.512563 294.124194 198.939916 294.237845 
" clip-path="url(#pe6376d1074)" style="fill: none; stroke: #333333; stroke-width: 0.6; stroke-linecap: round"/>
    <path d="M 195.489665 293.291395 
L 198.939916 294.237845 
L 196.112606 296.430176 
z
" clip-path="url(#pe6376d1074)" style="fill: #333333; stroke: #333333; stroke-width: 0.6; stroke-linecap: round"/>
   </g>
   <g id="patch_6">
    <path d="M 218.690447 303.857301 
Q 218.777055 303.849544 218.195518 303.901629 
" clip-path="url(#pe6376d1074)" style="fill: none; stroke: #333333; stroke-width: 0.6; stroke-linecap: round"/>
    <path d="M 214.865543 302.593473 
L 218.195518 303.901629 
L 215.151008 305.780715 
z
" clip-path="url(#pe6376d1074)" style="fill: #333333; stroke: #333333; stroke-width: 0.6; stroke-linecap: round"/>
   </g>
   <g id="patch_7">
    <path d="M 263.206264 306.108925 
Q 263.274444 306.099685 262.677882 306.180535 
" clip-path="url(#pe6376d1074)" style="fill: none; stroke: #333333; stroke-width: 0.6; stroke-linecap: round"/>
    <path d="M 259.291994 305.024782 
L 262.677882 306.180535 
L 259.721747 308.195793 
z
" clip-path="url(#pe6376d1074)" style="fill: #333333; stroke: #333333; stroke-width: 0.6; stroke-linecap: round"/>
   </g>
   <g id="patch_8">
    <path d="M 295.37742 306.405531 
Q 295.293097 306.384425 295.859519 306.5262 
" clip-path="url(#pe6376d1074)" style="fill: none; stroke: #333333; stroke-width: 0.6; stroke-linecap: round"/>
    <path d="M 298.575263 308.855306 
L 295.859519 306.5262 
L 299.35225 305.751069 
z
" clip-path="url(#pe6376d1074)" style="fill: #333333; stroke: #333333; stroke-width: 0.6; stroke-linecap: round"/>
   </g>
   <g id="patch_9">
    <path d="M 106.596085 84.127583 
Q 106.631474 84.142668 106.049764 83.894717 
" clip-path="url(#pe6376d1074)" style="fill: none; stroke: #333333; stroke-width: 0.6; stroke-linecap: round"/>
    <path d="M 103.733399 81.168098 
L 106.049764 83.894717 
L 102.47865 84.111837 
z
" clip-path="url(#pe6376d1074)" style="fill: #333333; stroke: #333333; stroke-width: 0.6; stroke-linecap: round"/>
   </g>
   <g id="patch_10">
    <path d="M 39.654038 74.337738 
Q 39.655762 74.328027 39.540186 74.978802 
" clip-path="url(#pe6376d1074)" style="fill: none; stroke: #333333; stroke-width: 0.6; stroke-linecap: round"/>
    <path d="M 37.405279 77.84972 
L 39.540186 74.978802 
L 40.555976 78.409279 
z
" clip-path="url(#pe6376d1074)" style="fill: #333333; stroke: #333333; stroke-width: 0.6; stroke-linecap: round"/>
   </g>
   <g id="patch_11">
    <path d="M 39.008649 117.278183 
Q 39.012438 117.18656 38.988511 117.765185 
" clip-path="url(#pe6376d1074)" style="fill: none; stroke: #333333; stroke-width: 0.6; stroke-linecap: round"/>
    <path d="M 37.257668 120.896348 
L 38.988511 117.765185 
L 40.454936 121.028558 
z
" clip-path="url(#pe6376d1074)" style="fill: #333333; stroke: #333333; stroke-width: 0.6; stroke-linecap: round"/>
   </g>
   <g id="patch_12">
    <path d="M 38.957362 160.286228 
Q 38.960423 160.19456 38.941095 160.773339 
" clip-path="url(#pe6376d1074)" style="fill: none; stroke: #333333; stroke-width: 0.6; stroke-linecap: round"/>
    <path d="M 37.23518 163.918153 
L 38.941095 160.773339 
L 40.433397 164.024959 
z
" clip-path="url(#pe6376d1074)" style="fill: #333333; stroke: #333333; stroke-width: 0.6; stroke-linecap: round"/>
   </g>
   <g id="patch_13">
    <path d="M 39.002068 203.298696 
Q 39.005465 203.207047 38.984017 203.785758 
" clip-path="url(#pe6376d1074)" style="fill: none; stroke: #333333; stroke-width: 0.6; stroke-linecap: round"/>
    <path d="M 37.266601 206.924306 
L 38.984017 203.785758 
L 40.464406 207.04282 
z
" clip-path="url(#pe6376d1074)" style="fill: #333333; stroke: #333333; stroke-width: 0.6; stroke-linecap: round"/>
   </g>
   <g id="patch_14">
    <path d="M 39.197 246.313008 
Q 39.201864 246.226076 39.16925 246.808917 
" clip-path="url(#pe6376d1074)" style="fill: none; stroke: #333333; stroke-width: 0.6; stroke-linecap: round"/>
    <path d="M 37.392962 249.914525 
L 39.16925 246.808917 
L 40.587964 250.093312 
z
" clip-path="url(#pe6376d1074)" style="fill: #333333; stroke: #333333; stroke-width: 0.6; stroke-linecap: round"/>
   </g>
   <g id="patch_15">
    <path d="M 59.504312 174.261763 
Q 59.52696 174.177657 59.375181 174.741297 
" clip-path="url(#pe6376d1074)" style="fill: none; stroke: #333333; stroke-width: 0.6; stroke-linecap: round"/>
    <path d="M 56.998147 177.415191 
L 59.375181 174.741297 
L 60.088076 178.24726 
z
" clip-path="url(#pe6376d1074)" style="fill: #333333; stroke: #333333; stroke-width: 0.6; stroke-linecap: round"/>
   </g>
   <g id="patch_16">
    <path d="M 148.482585 239.74886 
Q 148.555504 239.69323 148.095087 240.044482 
" clip-path="url(#pe6376d1074)" style="fill: none; stroke: #333333; stroke-width: 0.6; stroke-linecap: round"/>
    <path d="M 144.580457 240.713345 
L 148.095087 240.044482 
L 146.521399 243.257504 
z
" clip-path="url(#pe6376d1074)" style="fill: #333333; stroke: #333333; stroke-width: 0.6; stroke-linecap: round"/>
   </g>
   <g id="patch_17">
    <path d="M 190.427986 279.246944 
Q 190.509778 279.217047 189.96152 279.417446 
" clip-path="url(#pe6376d1074)" style="fill: none; stroke: #333333; stroke-width: 0.6; stroke-linecap: round"/>
    <path d="M 186.406715 279.013263 
L 189.96152 279.417446 
L 187.505291 282.01878 
z
" clip-path="url(#pe6376d1074)" style="fill: #333333; stroke: #333333; stroke-width: 0.6; stroke-linecap: round"/>
   </g>
   <g id="patch_18">
    <path d="M 318.864248 303.42907 
Q 318.777587 303.421362 319.359109 303.473084 
" clip-path="url(#pe6376d1074)" style="fill: none; stroke: #333333; stroke-width: 0.6; stroke-linecap: round"/>
    <path d="M 322.404779 305.350288 
L 319.359109 303.473084 
L 322.688274 302.162871 
z
" clip-path="url(#pe6376d1074)" style="fill: #333333; stroke: #333333; stroke-width: 0.6; stroke-linecap: round"/>
   </g>
   <g id="patch_19">
    <path d="M 312.632306 288.150158 
Q 312.547727 288.129863 313.115452 288.26609 
" clip-path="url(#pe6376d1074)" style="fill: none; stroke: #333333; stroke-width: 0.6; stroke-linecap: round"/>
    <path d="M 315.853795 290.568584 
L 313.115452 288.26609 
L 316.600452 287.456912 
z
" clip-path="url(#pe6376d1074)" style="fill: #333333; stroke: #333333; stroke-width: 0.6; stroke-linecap: round"/>
   </g>
   <g id="patch_20">
    <path d="M 320.87316 280.8523 
Q 320.787702 280.835631 321.360657 280.947384 
" clip-path="url(#pe6376d1074)" style="fill: none; stroke: #333333; stroke-width: 0.6; stroke-linecap: round"/>
    <path d="M 324.195168 283.130398 
L 321.360657 280.947384 
L 324.807774 279.989583 
z
" clip-path="url(#pe6376d1074)" style="fill: #333333; stroke: #333333; stroke-width: 0.6; stroke-linecap: round"/>
   </g>
   <g id="patch_21">
    <path d="M 296.926905 265.054473 
Q 296.856617 265.020676 297.390894 265.27757 
" clip-path="url(#pe6376d1074)" style="fill: none; stroke: #333333; stroke-width: 0.6; stroke-linecap: round"/>
    <path d="M 299.5815 268.106218 
L 297.390894 265.27757 
L 300.968175 265.222274 
z
" clip-path="url(#pe6376d1074)" style="fill: #333333; stroke: #333333; stroke-width: 0.6; stroke-linecap: round"/>
   </g>
   <g id="patch_22">
    <path d="M 320.888844 263.545649 
Q 320.803485 263.528415 321.375678 263.643941 
" clip-path="url(#pe6376d1074)" style="fill: none; stroke: #333333; stroke-width: 0.6; stroke-linecap: round"/>
    <path d="M 324.195731 265.8456 
L 321.375678 263.643941 
L 324.829036 262.708894 
z
" clip-path="url(#pe6376d1074)" style="fill: #333333; stroke: #333333; stroke-width: 0.6; stroke-linecap: round"/>
   </g>
   <g id="patch_23">
    <path d="M 304.605136 251.257316 
Q 304.522026 251.231461 305.079456 251.404877 
" clip-path="url(#pe6376d1074)" style="fill: none; stroke: #333333; stroke-width: 0.6; stroke-linecap: round"/>
    <path d="M 307.659719 253.883232 
L 305.079456 251.404877 
L 308.610298 250.82768 
z
" clip-path="url(#pe6376d1074)" style="fill: #333333; stroke: #333333; stroke-width: 0.6; stroke-linecap: round"/>
   </g>
   <g id="patch_24">
    <path d="M 304.505603 243.126998 
Q 304.421779 243.103502 304.98388 243.261062 
" clip-path="url(#pe6376d1074)" style="fill: none; stroke: #333333; stroke-width: 0.6; stroke-linecap: round"/>
    <path d="M 307.633274 245.665372 
L 304.98388 243.261062 
L 308.496965 242.584133 
z
" clip-path="url(#pe6376d1074)" style="fill: #333333; stroke: #333333; stroke-width: 0.6; stroke-linecap: round"/>
   </g>
   <g id="patch_25">
    <path d="M 288.101465 223.172659 
Q 288.023349 223.145766 288.579518 223.337236 
" clip-path="url(#pe6376d1074)" style="fill: none; stroke: #333333; stroke-width: 0.6; stroke-linecap: round"/>
    <path d="M 291.084411 225.891744 
L 288.579518 223.337236 
L 292.12606 222.866026 
z
" clip-path="url(#pe6376d1074)" style="fill: #333333; stroke: #333333; stroke-width: 0.6; stroke-linecap: round"/>
   </g>
   <g id="patch_26">
    <path d="M 329.116338 222.114509 
Q 329.024845 222.108154 329.602559 222.148281 
" clip-path="url(#pe6376d1074)" style="fill: none; stroke: #333333; stroke-width: 0.6; stroke-linecap: round"/>
    <path d="M 332.684002 223.966166 
L 329.602559 222.148281 
L 332.905733 220.773857 
z
" clip-path="url(#pe6376d1074)" style="fill: #333333; stroke: #333333; stroke-width: 0.6; stroke-linecap: round"/>
   </g>
   <g id="patch_27">
    <path d="M 312.413231 212.618198 
Q 312.326484 212.6104 312.907863 212.662661 
" clip-path="url(#pe6376d1074)" style="fill: none; stroke: #333333; stroke-width: 0.6; stroke-linecap: round"/>
    <path d="M 315.951763 214.542733 
L 312.907863 212.662661 
L 316.238261 211.355584 
z
" clip-path="url(#pe6376d1074)" style="fill: #333333; stroke: #333333; stroke-width: 0.6; stroke-linecap: round"/>
   </g>
   <g id="patch_28">
    <path d="M 320.750231 204.929943 
Q 320.658543 204.927444 321.237425 204.943219 
" clip-path="url(#pe6376d1074)" style="fill: none; stroke: #333333; stroke-width: 0.6; stroke-linecap: round"/>
    <path d="M 324.392655 206.629791 
L 321.237425 204.943219 
L 324.479821 203.430979 
z
" clip-path="url(#pe6376d1074)" style="fill: #333333; stroke: #333333; stroke-width: 0.6; stroke-linecap: round"/>
   </g>
   <g id="patch_29">
    <path d="M 287.351433 195.567953 
Q 287.264949 195.558105 287.844979 195.624149 
" clip-path="url(#pe6376d1074)" style="fill: none; stroke: #333333; stroke-width: 0.6; stroke-linecap: round"/>
    <path d="M 290.843423 197.575901 
L 287.844979 195.624149 
L 291.205447 194.396445 
z
" clip-path="url(#pe6376d1074)" style="fill: #333333; stroke: #333333; stroke-width: 0.6; stroke-linecap: round"/>
   </g>
   <g id="patch_30">
    <path d="M 312.412204 188.867451 
Q 312.325148 188.870269 312.908562 188.851389 
" clip-path="url(#pe6376d1074)" style="fill: none; stroke: #333333; stroke-width: 0.6; stroke-linecap: round"/>
    <path d="M 316.158636 190.347055 
L 312.908562 188.851389 
L 316.055139 187.148729 
z
" clip-path="url(#pe6376d1074)" style="fill: #333333; stroke: #333333; stroke-width: 0.6; stroke-linecap: round"/>
   </g>
   <g id="patch_31">
    <path d="M 304.135937 181.59502 
Q 304.044379 181.600163 304.622587 181.567681 
" clip-path="url(#pe6376d1074)" style="fill: none; stroke: #333333; stroke-width: 0.6; stroke-linecap: round"/>
    <path d="M 307.907291 182.985679 
L 304.622587 181.567681 
L 307.727807 179.790716 
z
" clip-path="url(#pe6376d1074)" style="fill: #333333; stroke: #333333; stroke-width: 0.6; stroke-linecap: round"/>
   </g>
   <g id="patch_32">
    <path d="M 320.850857 172.083015 
Q 320.759919 172.095034 321.334019 172.019158 
" clip-path="url(#pe6376d1074)" style="fill: none; stroke: #333333; stroke-width: 0.6; stroke-linecap: round"/>
    <path d="M 324.716072 173.186082 
L 321.334019 172.019158 
L 324.296791 170.01367 
z
" clip-path="url(#pe6376d1074)" style="fill: #333333; stroke: #333333; stroke-width: 0.6; stroke-linecap: round"/>
   </g>
   <g id="patch_33">
    <path d="M 279.962161 163.63247 
Q 279.875937 163.644749 280.453834 163.562452 
" clip-path="url(#pe6376d1074)" style="fill: none; stroke: #333333; stroke-width: 0.6; stroke-linecap: round"/>
    <path d="M 283.847447 164.695319 
L 280.453834 163.562452 
L 283.396295 161.527281 
z
" clip-path="url(#pe6376d1074)" style="fill: #333333; stroke: #333333; stroke-width: 0.6; stroke-linecap: round"/>
   </g>
   <g id="patch_34">
    <path d="M 297.211411 146.598774 
Q 297.127736 146.622939 297.688544 146.460979 
" clip-path="url(#pe6376d1074)" style="fill: none; stroke: #333333; stroke-width: 0.6; stroke-linecap: round"/>
    <path d="M 301.206838 147.110292 
L 297.688544 146.460979 
L 300.318971 144.035931 
z
" clip-path="url(#pe6376d1074)" style="fill: #333333; stroke: #333333; stroke-width: 0.6; stroke-linecap: round"/>
   </g>
   <g id="patch_35">
    <path d="M 321.360143 131.131509 
Q 321.273746 131.162311 321.819214 130.967843 
" clip-path="url(#pe6376d1074)" style="fill: none; stroke: #333333; stroke-width: 0.6; stroke-linecap: round"/>
    <path d="M 325.370687 131.400328 
L 321.819214 130.967843 
L 324.296086 128.386156 
z
" clip-path="url(#pe6376d1074)" style="fill: #333333; stroke: #333333; stroke-width: 0.6; stroke-linecap: round"/>
   </g>
   <g id="patch_36">
    <path d="M 290.413919 135.248756 
Q 290.332592 135.279917 290.877677 135.071061 
" clip-path="url(#pe6376d1074)" style="fill: none; stroke: #333333; stroke-width: 0.6; stroke-linecap: round"/>
    <path d="M 294.43831 135.420189 
L 290.877677 135.071061 
L 293.29336 132.432031 
z
" clip-path="url(#pe6376d1074)" style="fill: #333333; stroke: #333333; stroke-width: 0.6; stroke-linecap: round"/>
   </g>
   <g id="patch_37">
    <path d="M 329.289025 111.248723 
Q 329.205465 111.28655 329.733023 111.047727 
" clip-path="url(#pe6376d1074)" style="fill: none; stroke: #333333; stroke-width: 0.6; stroke-linecap: round"/>
    <path d="M 333.308073 111.185628 
L 329.733023 111.047727 
L 331.988373 108.270428 
z
" clip-path="url(#pe6376d1074)" style="fill: #333333; stroke: #333333; stroke-width: 0.6; stroke-linecap: round"/>
   </g>
   <g id="patch_38">
    <path d="M 329.322389 102.716404 
Q 329.240361 102.757438 329.758275 102.498353 
" clip-path="url(#pe6376d1074)" style="fill: none; stroke: #333333; stroke-width: 0.6; stroke-linecap: round"/>
    <path d="M 333.335984 102.497649 
L 329.758275 102.498353 
L 331.904337 99.635764 
z
" clip-path="url(#pe6376d1074)" style="fill: #333333; stroke: #333333; stroke-width: 0.6; stroke-linecap: round"/>
   </g>
   <g id="patch_39">
    <path d="M 329.357395 94.18094 
Q 329.276976 94.225036 329.784756 93.946607 
" clip-path="url(#pe6376d1074)" style="fill: none; stroke: #333333; stroke-width: 0.6; stroke-linecap: round"/>
    <path d="M 333.359894 93.811008 
L 329.784756 93.946607 
L 331.82136 91.005137 
z
" clip-path="url(#pe6376d1074)" style="fill: #333333; stroke: #333333; stroke-width: 0.6; stroke-linecap: round"/>
   </g>
   <g id="patch_40">
    <path d="M 329.393502 85.642073 
Q 329.314742 85.689075 329.812026 85.392312 
" clip-path="url(#pe6376d1074)" style="fill: none; stroke: #333333; stroke-width: 0.6; stroke-linecap: round"/>
    <path d="M 333.379839 85.126403 
L 329.812026 85.392312 
L 331.739987 82.378516 
z
" clip-path="url(#pe6376d1074)" style="fill: #333333; stroke: #333333; stroke-width: 0.6; stroke-linecap: round"/>
   </g>
   <g id="patch_41">
    <path d="M 281.403089 101.943461 
Q 281.327624 101.995562 281.804195 101.66654 
" clip-path="url(#pe6376d1074)" style="fill: none; stroke: #333333; stroke-width: 0.6; stroke-linecap: round"/>
    <path d="M 285.346599 101.165165 
L 281.804195 101.66654 
L 283.528537 98.531792 
z
" clip-path="url(#pe6376d1074)" style="fill: #333333; stroke: #333333; stroke-width: 0.6; stroke-linecap: round"/>
   </g>
   <g id="patch_42">
    <path d="M 290.298733 82.699487 
Q 290.226972 82.756584 290.680145 82.396017 
" clip-path="url(#pe6376d1074)" style="fill: none; stroke: #333333; stroke-width: 0.6; stroke-linecap: round"/>
    <path d="M 294.180418 81.655684 
L 290.680145 82.396017 
L 292.188042 79.151599 
z
" clip-path="url(#pe6376d1074)" style="fill: #333333; stroke: #333333; stroke-width: 0.6; stroke-linecap: round"/>
   </g>
   <g id="patch_43">
    <path d="M 292.290117 67.852646 
Q 292.221888 67.913934 292.652708 67.526947 
" clip-path="url(#pe6376d1074)" style="fill: none; stroke: #333333; stroke-width: 0.6; stroke-linecap: round"/>
    <path d="M 296.102509 66.578858 
L 292.652708 67.526947 
L 293.964117 64.198252 
z
" clip-path="url(#pe6376d1074)" style="fill: #333333; stroke: #333333; stroke-width: 0.6; stroke-linecap: round"/>
   </g>
   <g id="patch_44">
    <path d="M 323.592515 31.532191 
Q 323.525971 31.595321 323.946089 31.196759 
" clip-path="url(#pe6376d1074)" style="fill: none; stroke: #333333; stroke-width: 0.6; stroke-linecap: round"/>
    <path d="M 327.368804 30.155116 
L 323.946089 31.196759 
L 325.166403 27.833601 
z
" clip-path="url(#pe6376d1074)" style="fill: #333333; stroke: #333333; stroke-width: 0.6; stroke-linecap: round"/>
   </g>
   <g id="patch_45">
    <path d="M 323.783525 23.126412 
Q 323.718664 23.191274 324.128144 22.781793 
" clip-path="url(#pe6376d1074)" style="fill: none; stroke: #333333; stroke-width: 0.6; stroke-linecap: round"/>
    <path d="M 327.522257 21.650423 
L 324.128144 22.781793 
L 325.259515 19.387681 
z
" clip-path="url(#pe6376d1074)" style="fill: #333333; stroke: #333333; stroke-width: 0.6; stroke-linecap: round"/>
   </g>
   <g id="patch_46">
    <path d="M 315.377747 23.317422 
Q 315.314617 23.383967 315.713179 22.963849 
" clip-path="url(#pe6376d1074)" style="fill: none; stroke: #333333; stroke-width: 0.6; stroke-linecap: round"/>
    <path d="M 319.076337 21.743534 
L 315.713179 22.963849 
L 316.754822 19.541134 
z
" clip-path="url(#pe6376d1074)" style="fill: #333333; stroke: #333333; stroke-width: 0.6; stroke-linecap: round"/>
   </g>
   <g id="patch_47">
    <path d="M 267.885191 67.060546 
Q 267.823942 67.128791 268.210755 66.697796 
" clip-path="url(#pe6376d1074)" style="fill: none; stroke: #333333; stroke-width: 0.6; stroke-linecap: round"/>
    <path d="M 271.538891 65.384972 
L 268.210755 66.697796 
L 269.157377 63.247593 
z
" clip-path="url(#pe6376d1074)" style="fill: #333333; stroke: #333333; stroke-width: 0.6; stroke-linecap: round"/>
   </g>
   <g id="patch_48">
    <path d="M 298.610807 23.709053 
Q 298.551542 23.779057 298.92572 23.337077 
" clip-path="url(#pe6376d1074)" style="fill: none; stroke: #333333; stroke-width: 0.6; stroke-linecap: round"/>
    <path d="M 302.214515 21.928593 
L 298.92572 23.337077 
L 299.77221 19.86095 
z
" clip-path="url(#pe6376d1074)" style="fill: #333333; stroke: #333333; stroke-width: 0.6; stroke-linecap: round"/>
   </g>
   <g id="patch_49">
    <path d="M 256.920179 57.621922 
Q 256.86543 57.695488 257.211179 57.230907 
" clip-path="url(#pe6376d1074)" style="fill: none; stroke: #333333; stroke-width: 0.6; stroke-linecap: round"/>
    <path d="M 260.40522 55.619046 
L 257.211179 57.230907 
L 257.838114 53.708557 
z
" clip-path="url(#pe6376d1074)" style="fill: #333333; stroke: #333333; stroke-width: 0.6; stroke-linecap: round"/>
   </g>
   <g id="patch_50">
    <path d="M 251.67054 45.576996 
Q 251.620865 45.654083 251.934559 45.167288 
" clip-path="url(#pe6376d1074)" style="fill: none; stroke: #333333; stroke-width: 0.6; stroke-linecap: round"/>
    <path d="M 255.012869 43.344103 
L 251.934559 45.167288 
L 252.322997 41.610729 
z
" clip-path="url(#pe6376d1074)" style="fill: #333333; stroke: #333333; stroke-width: 0.6; stroke-linecap: round"/>
   </g>
   <g id="patch_51">
    <path d="M 224.794294 68.986822 
Q 224.753569 69.063819 225.026482 68.547831 
" clip-path="url(#pe6376d1074)" style="fill: none; stroke: #333333; stroke-width: 0.6; stroke-linecap: round"/>
    <path d="M 227.936973 66.467196 
L 225.026482 68.547831 
L 225.108268 64.971057 
z
" clip-path="url(#pe6376d1074)" style="fill: #333333; stroke: #333333; stroke-width: 0.6; stroke-linecap: round"/>
   </g>
   <g id="patch_52">
    <path d="M 221.958171 48.137028 
Q 221.922981 48.216707 222.158802 47.682747 
" clip-path="url(#pe6376d1074)" style="fill: none; stroke: #333333; stroke-width: 0.6; stroke-linecap: round"/>
    <path d="M 224.915215 45.401915 
L 222.158802 47.682747 
L 221.987985 44.109118 
z
" clip-path="url(#pe6376d1074)" style="fill: #333333; stroke: #333333; stroke-width: 0.6; stroke-linecap: round"/>
   </g>
   <g id="patch_53">
    <path d="M 227.131628 17.652066 
Q 227.097133 17.737057 227.314915 17.200473 
" clip-path="url(#pe6376d1074)" style="fill: none; stroke: #333333; stroke-width: 0.6; stroke-linecap: round"/>
    <path d="M 230.000893 14.837102 
L 227.314915 17.200473 
L 227.035805 13.633668 
z
" clip-path="url(#pe6376d1074)" style="fill: #333333; stroke: #333333; stroke-width: 0.6; stroke-linecap: round"/>
   </g>
   <g id="patch_54">
    <path d="M 204.806865 57.139343 
Q 204.778167 57.226446 204.959385 56.676419 
" clip-path="url(#pe6376d1074)" style="fill: none; stroke: #333333; stroke-width: 0.6; stroke-linecap: round"/>
    <path d="M 207.480385 54.137806 
L 204.959385 56.676419 
L 204.441095 53.136451 
z
" clip-path="url(#pe6376d1074)" style="fill: #333333; stroke: #333333; stroke-width: 0.6; stroke-linecap: round"/>
   </g>
   <g id="patch_55">
    <path d="M 207.576553 25.683714 
Q 207.549378 25.771314 207.72096 25.218216 
" clip-path="url(#pe6376d1074)" style="fill: none; stroke: #333333; stroke-width: 0.6; stroke-linecap: round"/>
    <path d="M 210.197247 22.635968 
L 207.72096 25.218216 
L 207.140934 21.687838 
z
" clip-path="url(#pe6376d1074)" style="fill: #333333; stroke: #333333; stroke-width: 0.6; stroke-linecap: round"/>
   </g>
   <g id="patch_56">
    <path d="M 191.288641 58.256243 
Q 191.26974 58.341248 191.396439 57.771423 
" clip-path="url(#pe6376d1074)" style="fill: none; stroke: #333333; stroke-width: 0.6; stroke-linecap: round"/>
    <path d="M 193.652844 54.99498 
L 191.396439 57.771423 
L 190.529127 54.300433 
z
" clip-path="url(#pe6376d1074)" style="fill: #333333; stroke: #333333; stroke-width: 0.6; stroke-linecap: round"/>
   </g>
   <g id="patch_57">
    <path d="M 179.028624 50.760353 
Q 179.016972 50.846651 179.095076 50.268161 
" clip-path="url(#pe6376d1074)" style="fill: none; stroke: #333333; stroke-width: 0.6; stroke-linecap: round"/>
    <path d="M 181.108846 47.311012 
L 179.095076 50.268161 
L 177.937618 46.882856 
z
" clip-path="url(#pe6376d1074)" style="fill: #333333; stroke: #333333; stroke-width: 0.6; stroke-linecap: round"/>
   </g>
   <g id="patch_58">
    <path d="M 164.894635 51.130522 
Q 164.891881 51.217579 164.910336 50.634151 
" clip-path="url(#pe6376d1074)" style="fill: none; stroke: #333333; stroke-width: 0.6; stroke-linecap: round"/>
    <path d="M 166.61071 47.486338 
L 164.910336 50.634151 
L 163.41231 47.385164 
z
" clip-path="url(#pe6376d1074)" style="fill: #333333; stroke: #333333; stroke-width: 0.6; stroke-linecap: round"/>
   </g>
   <g id="patch_59">
    <path d="M 157.817153 42.852835 
Q 157.816293 42.939919 157.822061 42.356216 
" clip-path="url(#pe6376d1074)" style="fill: none; stroke: #333333; stroke-width: 0.6; stroke-linecap: round"/>
    <path d="M 159.453603 39.172183 
L 157.822061 42.356216 
L 156.253759 39.140562 
z
" clip-path="url(#pe6376d1074)" style="fill: #333333; stroke: #333333; stroke-width: 0.6; stroke-linecap: round"/>
   </g>
   <g id="patch_60">
    <path d="M 150.16209 34.516019 
Q 150.163013 34.607715 150.157184 34.028623 
" clip-path="url(#pe6376d1074)" style="fill: none; stroke: #333333; stroke-width: 0.6; stroke-linecap: round"/>
    <path d="M 151.724894 30.812681 
L 150.157184 34.028623 
L 148.525056 30.84489 
z
" clip-path="url(#pe6376d1074)" style="fill: #333333; stroke: #333333; stroke-width: 0.6; stroke-linecap: round"/>
   </g>
   <g id="patch_61">
    <path d="M 142.256434 34.51607 
Q 142.261169 34.607665 142.231274 34.029333 
" clip-path="url(#pe6376d1074)" style="fill: none; stroke: #333333; stroke-width: 0.6; stroke-linecap: round"/>
    <path d="M 143.663944 30.751002 
L 142.231274 34.029333 
L 140.468211 30.916198 
z
" clip-path="url(#pe6376d1074)" style="fill: #333333; stroke: #333333; stroke-width: 0.6; stroke-linecap: round"/>
   </g>
   <g id="patch_62">
    <path d="M 133.717293 26.149143 
Q 133.722986 26.240674 133.687038 25.662678 
" clip-path="url(#pe6376d1074)" style="fill: none; stroke: #333333; stroke-width: 0.6; stroke-linecap: round"/>
    <path d="M 135.085316 22.369531 
L 133.687038 25.662678 
L 131.891487 22.568167 
z
" clip-path="url(#pe6376d1074)" style="fill: #333333; stroke: #333333; stroke-width: 0.6; stroke-linecap: round"/>
   </g>
   <g id="patch_63">
    <path d="M 125.425373 26.137882 
Q 125.433586 26.224599 125.378552 25.643484 
" clip-path="url(#pe6376d1074)" style="fill: none; stroke: #333333; stroke-width: 0.6; stroke-linecap: round"/>
    <path d="M 126.669724 22.306887 
L 125.378552 25.643484 
L 123.483978 22.608589 
z
" clip-path="url(#pe6376d1074)" style="fill: #333333; stroke: #333333; stroke-width: 0.6; stroke-linecap: round"/>
   </g>
   <g id="patch_64">
    <path d="M 116.246003 17.789201 
Q 116.254779 17.880492 116.199366 17.304041 
" clip-path="url(#pe6376d1074)" style="fill: none; stroke: #333333; stroke-width: 0.6; stroke-linecap: round"/>
    <path d="M 117.485831 13.965627 
L 116.199366 17.304041 
L 114.300514 14.271821 
z
" clip-path="url(#pe6376d1074)" style="fill: #333333; stroke: #333333; stroke-width: 0.6; stroke-linecap: round"/>
   </g>
   <g id="patch_65">
    <path d="M 113.88586 50.596259 
Q 113.911925 50.679258 113.737007 50.122252 
" clip-path="url(#pe6376d1074)" style="fill: none; stroke: #333333; stroke-width: 0.6; stroke-linecap: round"/>
    <path d="M 114.304768 46.589881 
L 113.737007 50.122252 
L 111.251766 47.548621 
z
" clip-path="url(#pe6376d1074)" style="fill: #333333; stroke: #333333; stroke-width: 0.6; stroke-linecap: round"/>
   </g>
   <g id="patch_66">
    <path d="M 98.287166 50.223004 
Q 98.319684 50.303614 98.10124 49.762116 
" clip-path="url(#pe6376d1074)" style="fill: none; stroke: #333333; stroke-width: 0.6; stroke-linecap: round"/>
    <path d="M 98.387886 46.195909 
L 98.10124 49.762116 
L 95.420262 47.393074 
z
" clip-path="url(#pe6376d1074)" style="fill: #333333; stroke: #333333; stroke-width: 0.6; stroke-linecap: round"/>
   </g>
   <g id="patch_67">
    <path d="M 83.364289 26.021093 
Q 83.381523 26.106453 83.265996 25.53426 
" clip-path="url(#pe6376d1074)" style="fill: none; stroke: #333333; stroke-width: 0.6; stroke-linecap: round"/>
    <path d="M 84.201044 22.080901 
L 83.265996 25.53426 
L 81.064338 22.714207 
z
" clip-path="url(#pe6376d1074)" style="fill: #333333; stroke: #333333; stroke-width: 0.6; stroke-linecap: round"/>
   </g>
   <g id="patch_68">
    <path d="M 74.759821 26.021041 
Q 74.777222 26.106361 74.660566 25.534391 
" clip-path="url(#pe6376d1074)" style="fill: none; stroke: #333333; stroke-width: 0.6; stroke-linecap: round"/>
    <path d="M 75.588802 22.079195 
L 74.660566 25.534391 
L 72.453351 22.718685 
z
" clip-path="url(#pe6376d1074)" style="fill: #333333; stroke: #333333; stroke-width: 0.6; stroke-linecap: round"/>
   </g>
   <g id="patch_69">
    <path d="M 66.057638 26.036778 
Q 66.074306 26.122236 65.962553 25.54928 
" clip-path="url(#pe6376d1074)" style="fill: none; stroke: #333333; stroke-width: 0.6; stroke-linecap: round"/>
    <path d="M 66.920354 22.102163 
L 65.962553 25.54928 
L 63.77954 22.714769 
z
" clip-path="url(#pe6376d1074)" style="fill: #333333; stroke: #333333; stroke-width: 0.6; stroke-linecap: round"/>
   </g>
   <g id="patch_70">
    <path d="M 57.224439 26.070094 
Q 57.239083 26.155918 57.140896 25.580478 
" clip-path="url(#pe6376d1074)" style="fill: none; stroke: #333333; stroke-width: 0.6; stroke-linecap: round"/>
    <path d="M 58.179871 22.156952 
L 57.140896 25.580478 
L 55.02546 22.695183 
z
" clip-path="url(#pe6376d1074)" style="fill: #333333; stroke: #333333; stroke-width: 0.6; stroke-linecap: round"/>
   </g>
   <g id="patch_71">
    <path d="M 48.206979 26.118693 
Q 48.217601 26.205128 48.146402 25.62575 
" clip-path="url(#pe6376d1074)" style="fill: none; stroke: #333333; stroke-width: 0.6; stroke-linecap: round"/>
    <path d="M 49.344147 22.254489 
L 48.146402 25.62575 
L 46.16804 22.644797 
z
" clip-path="url(#pe6376d1074)" style="fill: #333333; stroke: #333333; stroke-width: 0.6; stroke-linecap: round"/>
   </g>
   <g id="patch_72">
    <path d="M 45.799147 90.738443 
Q 45.814943 90.671268 45.677188 91.257103 
" clip-path="url(#pe6376d1074)" style="fill: none; stroke: #333333; stroke-width: 0.6; stroke-linecap: round"/>
    <path d="M 43.387189 94.005903 
L 45.677188 91.257103 
L 46.502229 94.738382 
z
" clip-path="url(#pe6376d1074)" style="fill: #333333; stroke: #333333; stroke-width: 0.6; stroke-linecap: round"/>
   </g>
   <g id="patch_73">
    <path d="M 44.492593 141.902519 
Q 44.501339 141.815977 44.442637 142.396856 
" clip-path="url(#pe6376d1074)" style="fill: none; stroke: #333333; stroke-width: 0.6; stroke-linecap: round"/>
    <path d="M 42.529 145.419767 
L 44.442637 142.396856 
L 45.712784 145.741513 
z
" clip-path="url(#pe6376d1074)" style="fill: #333333; stroke: #333333; stroke-width: 0.6; stroke-linecap: round"/>
   </g>
   <g id="patch_74">
    <path d="M 44.692422 184.947275 
Q 44.701177 184.860719 44.642423 185.441578 
" clip-path="url(#pe6376d1074)" style="fill: none; stroke: #333333; stroke-width: 0.6; stroke-linecap: round"/>
    <path d="M 42.728508 188.464313 
L 44.642423 185.441578 
L 45.912262 188.786351 
z
" clip-path="url(#pe6376d1074)" style="fill: #333333; stroke: #333333; stroke-width: 0.6; stroke-linecap: round"/>
   </g>
   <g id="patch_75">
    <path d="M 81.252387 186.520041 
Q 81.293812 186.438232 81.032199 186.954894 
" clip-path="url(#pe6376d1074)" style="fill: none; stroke: #333333; stroke-width: 0.6; stroke-linecap: round"/>
    <path d="M 78.159189 189.086986 
L 81.032199 186.954894 
L 81.014066 190.532557 
z
" clip-path="url(#pe6376d1074)" style="fill: #333333; stroke: #333333; stroke-width: 0.6; stroke-linecap: round"/>
   </g>
   <g id="patch_76">
    <path d="M 163.953035 246.107427 
Q 164.028609 246.055479 163.551368 246.383526 
" clip-path="url(#pe6376d1074)" style="fill: none; stroke: #333333; stroke-width: 0.6; stroke-linecap: round"/>
    <path d="M 160.007948 246.877669 
L 163.551368 246.383526 
L 161.820631 249.514748 
z
" clip-path="url(#pe6376d1074)" style="fill: #333333; stroke: #333333; stroke-width: 0.6; stroke-linecap: round"/>
   </g>
   <g id="patch_77">
    <path d="M 246.139989 287.42187 
Q 246.209777 287.387482 245.677832 287.649604 
" clip-path="url(#pe6376d1074)" style="fill: none; stroke: #333333; stroke-width: 0.6; stroke-linecap: round"/>
    <path d="M 242.100184 287.62883 
L 245.677832 287.649604 
L 243.514624 290.499258 
z
" clip-path="url(#pe6376d1074)" style="fill: #333333; stroke: #333333; stroke-width: 0.6; stroke-linecap: round"/>
   </g>
   <g id="patch_78">
    <path d="M 60.557501 79.454082 
Q 60.61992 79.407212 60.14591 79.763138 
" clip-path="url(#pe6376d1074)" style="fill: none; stroke: #333333; stroke-width: 0.6; stroke-linecap: round"/>
    <path d="M 56.626272 80.405123 
L 60.14591 79.763138 
L 58.547715 82.96404 
z
" clip-path="url(#pe6376d1074)" style="fill: #333333; stroke: #333333; stroke-width: 0.6; stroke-linecap: round"/>
   </g>
   <g id="patch_79">
    <path d="M 63.454928 93.495467 
Q 63.822328 92.991458 63.794573 93.029532 
" clip-path="url(#pe6376d1074)" style="fill: none; stroke: #333333; stroke-width: 0.6; stroke-linecap: round"/>
    <path d="M 60.616639 94.672923 
L 63.794573 93.029532 
L 63.202525 96.557914 
z
" clip-path="url(#pe6376d1074)" style="fill: #333333; stroke: #333333; stroke-width: 0.6; stroke-linecap: round"/>
   </g>
   <g id="patch_80">
    <path d="M 66.157145 119.619234 
Q 66.193003 119.540074 65.95207 120.071968 
" clip-path="url(#pe6376d1074)" style="fill: none; stroke: #333333; stroke-width: 0.6; stroke-linecap: round"/>
    <path d="M 63.174256 122.326684 
L 65.95207 120.071968 
L 66.089155 123.647049 
z
" clip-path="url(#pe6376d1074)" style="fill: #333333; stroke: #333333; stroke-width: 0.6; stroke-linecap: round"/>
   </g>
   <g id="patch_81">
    <path d="M 82.226224 149.858686 
Q 82.267622 149.782098 81.99004 150.295639 
" clip-path="url(#pe6376d1074)" style="fill: none; stroke: #333333; stroke-width: 0.6; stroke-linecap: round"/>
    <path d="M 79.060881 152.34991 
L 81.99004 150.295639 
L 81.875962 153.871528 
z
" clip-path="url(#pe6376d1074)" style="fill: #333333; stroke: #333333; stroke-width: 0.6; stroke-linecap: round"/>
   </g>
   <g id="patch_82">
    <path d="M 100.891854 201.238114 
Q 100.945258 201.163558 100.60803 201.634351 
" clip-path="url(#pe6376d1074)" style="fill: none; stroke: #333333; stroke-width: 0.6; stroke-linecap: round"/>
    <path d="M 97.443871 203.304111 
L 100.60803 201.634351 
L 100.045342 205.167534 
z
" clip-path="url(#pe6376d1074)" style="fill: #333333; stroke: #333333; stroke-width: 0.6; stroke-linecap: round"/>
   </g>
   <g id="patch_83">
    <path d="M 139.044438 228.057903 
Q 139.113224 227.997229 138.678933 228.380305 
" clip-path="url(#pe6376d1074)" style="fill: none; stroke: #333333; stroke-width: 0.6; stroke-linecap: round"/>
    <path d="M 135.220712 229.297206 
L 138.678933 228.380305 
L 137.337521 231.697022 
z
" clip-path="url(#pe6376d1074)" style="fill: #333333; stroke: #333333; stroke-width: 0.6; stroke-linecap: round"/>
   </g>
   <g id="patch_84">
    <path d="M 184.644706 247.299014 
Q 184.716298 247.249419 184.236458 247.581822 
" clip-path="url(#pe6376d1074)" style="fill: none; stroke: #333333; stroke-width: 0.6; stroke-linecap: round"/>
    <path d="M 180.694854 248.088812 
L 184.236458 247.581822 
L 182.517088 250.7193 
z
" clip-path="url(#pe6376d1074)" style="fill: #333333; stroke: #333333; stroke-width: 0.6; stroke-linecap: round"/>
   </g>
   <g id="patch_85">
    <path d="M 219.473903 275.634311 
Q 219.552083 275.596164 219.027382 275.852184 
" clip-path="url(#pe6376d1074)" style="fill: none; stroke: #333333; stroke-width: 0.6; stroke-linecap: round"/>
    <path d="M 215.449842 275.817484 
L 219.027382 275.852184 
L 216.853097 278.693396 
z
" clip-path="url(#pe6376d1074)" style="fill: #333333; stroke: #333333; stroke-width: 0.6; stroke-linecap: round"/>
   </g>
   <g id="patch_86">
    <path d="M 118.852035 207.8655 
Q 118.912709 207.796714 118.529633 208.231005 
" clip-path="url(#pe6376d1074)" style="fill: none; stroke: #333333; stroke-width: 0.6; stroke-linecap: round"/>
    <path d="M 115.212915 209.572416 
L 118.529633 208.231005 
L 117.612732 211.689226 
z
" clip-path="url(#pe6376d1074)" style="fill: #333333; stroke: #333333; stroke-width: 0.6; stroke-linecap: round"/>
   </g>
   <g id="patch_87">
    <path d="M 114.205634 165.655532 
Q 114.263625 165.584495 113.8974 166.033113 
" clip-path="url(#pe6376d1074)" style="fill: none; stroke: #333333; stroke-width: 0.6; stroke-linecap: round"/>
    <path d="M 110.634324 167.500197 
L 113.8974 166.033113 
L 113.113222 169.523824 
z
" clip-path="url(#pe6376d1074)" style="fill: #333333; stroke: #333333; stroke-width: 0.6; stroke-linecap: round"/>
   </g>
   <g id="patch_88">
    <path d="M 224.272368 249.959531 
Q 224.331029 249.901452 223.912992 250.315346 
" clip-path="url(#pe6376d1074)" style="fill: none; stroke: #333333; stroke-width: 0.6; stroke-linecap: round"/>
    <path d="M 220.513289 251.429804 
L 223.912992 250.315346 
L 222.764737 253.703784 
z
" clip-path="url(#pe6376d1074)" style="fill: #333333; stroke: #333333; stroke-width: 0.6; stroke-linecap: round"/>
   </g>
   <g id="patch_89">
    <path d="M 264.722143 134.299118 
Q 264.642844 134.335035 265.174609 134.094182 
" clip-path="url(#pe6376d1074)" style="fill: none; stroke: #333333; stroke-width: 0.6; stroke-linecap: round"/>
    <path d="M 268.749686 134.231384 
L 265.174609 134.094182 
L 267.429417 131.316441 
z
" clip-path="url(#pe6376d1074)" style="fill: #333333; stroke: #333333; stroke-width: 0.6; stroke-linecap: round"/>
   </g>
   <g id="patch_90">
    <path d="M 273.607718 115.974934 
Q 273.533216 116.020041 274.032556 115.717719 
" clip-path="url(#pe6376d1074)" style="fill: none; stroke: #333333; stroke-width: 0.6; stroke-linecap: round"/>
    <path d="M 277.598603 115.429083 
L 274.032556 115.717719 
L 275.941275 112.6917 
z
" clip-path="url(#pe6376d1074)" style="fill: #333333; stroke: #333333; stroke-width: 0.6; stroke-linecap: round"/>
   </g>
   <g id="patch_91">
    <path d="M 112.812302 244.203322 
Q 112.880461 244.141964 112.450059 244.529423 
" clip-path="url(#pe6376d1074)" style="fill: none; stroke: #333333; stroke-width: 0.6; stroke-linecap: round"/>
    <path d="M 109.001294 245.481274 
L 112.450059 244.529423 
L 111.142281 247.859546 
z
" clip-path="url(#pe6376d1074)" style="fill: #333333; stroke: #333333; stroke-width: 0.6; stroke-linecap: round"/>
   </g>
   <g id="patch_92">
    <path d="M 213.193743 235.555864 
Q 213.253843 235.493069 212.850113 235.9149 
" clip-path="url(#pe6376d1074)" style="fill: none; stroke: #333333; stroke-width: 0.6; stroke-linecap: round"/>
    <path d="M 209.481614 237.120394 
L 212.850113 235.9149 
L 211.793409 239.332995 
z
" clip-path="url(#pe6376d1074)" style="fill: #333333; stroke: #333333; stroke-width: 0.6; stroke-linecap: round"/>
   </g>
   <g id="patch_93">
    <path d="M 269.436163 171.93279 
Q 269.349184 171.934055 269.932954 171.925566 
" clip-path="url(#pe6376d1074)" style="fill: none; stroke: #333333; stroke-width: 0.6; stroke-linecap: round"/>
    <path d="M 273.155879 173.478871 
L 269.932954 171.925566 
L 273.109353 170.27921 
z
" clip-path="url(#pe6376d1074)" style="fill: #333333; stroke: #333333; stroke-width: 0.6; stroke-linecap: round"/>
   </g>
   <g id="patch_94">
    <path d="M 263.034181 83.875756 
Q 262.972589 83.937349 263.385338 83.5246 
" clip-path="url(#pe6376d1074)" style="fill: none; stroke: #333333; stroke-width: 0.6; stroke-linecap: round"/>
    <path d="M 266.77945 82.393229 
L 263.385338 83.5246 
L 264.516709 80.130487 
z
" clip-path="url(#pe6376d1074)" style="fill: #333333; stroke: #333333; stroke-width: 0.6; stroke-linecap: round"/>
   </g>
   <g id="patch_95">
    <path d="M 86.409003 124.070021 
Q 86.461631 124.000906 86.107866 124.4655 
" clip-path="url(#pe6376d1074)" style="fill: none; stroke: #333333; stroke-width: 0.6; stroke-linecap: round"/>
    <path d="M 82.896291 126.042137 
L 86.107866 124.4655 
L 85.44223 127.980743 
z
" clip-path="url(#pe6376d1074)" style="fill: #333333; stroke: #333333; stroke-width: 0.6; stroke-linecap: round"/>
   </g>
   <g id="patch_96">
    <path d="M 106.376994 131.778291 
Q 106.43833 131.716708 106.026278 132.130419 
" clip-path="url(#pe6376d1074)" style="fill: none; stroke: #333333; stroke-width: 0.6; stroke-linecap: round"/>
    <path d="M 102.634446 133.268608 
L 106.026278 132.130419 
L 104.90173 135.526798 
z
" clip-path="url(#pe6376d1074)" style="fill: #333333; stroke: #333333; stroke-width: 0.6; stroke-linecap: round"/>
   </g>
   <g id="patch_97">
    <path d="M 102.706615 234.097636 
Q 102.767974 234.029477 102.380514 234.459878 
" clip-path="url(#pe6376d1074)" style="fill: none; stroke: #333333; stroke-width: 0.6; stroke-linecap: round"/>
    <path d="M 99.050392 235.767656 
L 102.380514 234.459878 
L 101.428663 237.908643 
z
" clip-path="url(#pe6376d1074)" style="fill: #333333; stroke: #333333; stroke-width: 0.6; stroke-linecap: round"/>
   </g>
   <g id="patch_98">
    <path d="M 139.310986 236.417336 
Q 139.381993 236.359289 138.933633 236.725811 
" clip-path="url(#pe6376d1074)" style="fill: none; stroke: #333333; stroke-width: 0.6; stroke-linecap: round"/>
    <path d="M 135.443454 237.512353 
L 138.933633 236.725811 
L 137.46876 239.98988 
z
" clip-path="url(#pe6376d1074)" style="fill: #333333; stroke: #333333; stroke-width: 0.6; stroke-linecap: round"/>
   </g>
   <g id="patch_99">
    <path d="M 109.815813 155.475236 
Q 109.870802 155.407711 109.502199 155.860348 
" clip-path="url(#pe6376d1074)" style="fill: none; stroke: #333333; stroke-width: 0.6; stroke-linecap: round"/>
    <path d="M 106.240882 157.331339 
L 109.502199 155.860348 
L 108.722201 159.351996 
z
" clip-path="url(#pe6376d1074)" style="fill: #333333; stroke: #333333; stroke-width: 0.6; stroke-linecap: round"/>
   </g>
   <g id="patch_100">
    <path d="M 110.492602 207.598951 
Q 110.550648 207.527944 110.184127 207.976304 
" clip-path="url(#pe6376d1074)" style="fill: none; stroke: #333333; stroke-width: 0.6; stroke-linecap: round"/>
    <path d="M 106.920058 209.441177 
L 110.184127 207.976304 
L 109.397584 211.466483 
z
" clip-path="url(#pe6376d1074)" style="fill: #333333; stroke: #333333; stroke-width: 0.6; stroke-linecap: round"/>
   </g>
   <g id="patch_101">
    <path d="M 257.780819 71.143494 
Q 257.721852 71.213721 258.094249 70.770213 
" clip-path="url(#pe6376d1074)" style="fill: none; stroke: #333333; stroke-width: 0.6; stroke-linecap: round"/>
    <path d="M 261.377309 69.348412 
L 258.094249 70.770213 
L 258.926644 67.290685 
z
" clip-path="url(#pe6376d1074)" style="fill: #333333; stroke: #333333; stroke-width: 0.6; stroke-linecap: round"/>
   </g>
   <g id="patch_102">
    <path d="M 146.254255 85.316355 
Q 146.288712 85.375942 145.987362 84.854812 
" clip-path="url(#pe6376d1074)" style="fill: none; stroke: #333333; stroke-width: 0.6; stroke-linecap: round"/>
    <path d="M 145.770561 81.283678 
L 145.987362 84.854812 
L 143.000374 82.885573 
z
" clip-path="url(#pe6376d1074)" style="fill: #333333; stroke: #333333; stroke-width: 0.6; stroke-linecap: round"/>
   </g>
   <g id="patch_103">
    <path d="M 196.264648 212.619048 
Q 196.32375 212.555108 195.927513 212.98378 
" clip-path="url(#pe6376d1074)" style="fill: none; stroke: #333333; stroke-width: 0.6; stroke-linecap: round"/>
    <path d="M 192.580474 214.247635 
L 195.927513 212.98378 
L 194.930373 216.419725 
z
" clip-path="url(#pe6376d1074)" style="fill: #333333; stroke: #333333; stroke-width: 0.6; stroke-linecap: round"/>
   </g>
   <g id="patch_104">
    <path d="M 194.955951 229.506696 
Q 195.020362 229.448096 194.588579 229.840927 
" clip-path="url(#pe6376d1074)" style="fill: none; stroke: #333333; stroke-width: 0.6; stroke-linecap: round"/>
    <path d="M 191.144863 230.810888 
L 194.588579 229.840927 
L 193.298318 233.177876 
z
" clip-path="url(#pe6376d1074)" style="fill: #333333; stroke: #333333; stroke-width: 0.6; stroke-linecap: round"/>
   </g>
   <g id="patch_105">
    <path d="M 122.663704 179.869079 
Q 122.723413 179.799447 122.346456 180.239054 
" clip-path="url(#pe6376d1074)" style="fill: none; stroke: #333333; stroke-width: 0.6; stroke-linecap: round"/>
    <path d="M 119.04884 181.626759 
L 122.346456 180.239054 
L 121.478051 183.70977 
z
" clip-path="url(#pe6376d1074)" style="fill: #333333; stroke: #333333; stroke-width: 0.6; stroke-linecap: round"/>
   </g>
   <g id="patch_106">
    <path d="M 152.809867 203.510797 
Q 152.875561 203.446765 152.460876 203.850961 
" clip-path="url(#pe6376d1074)" style="fill: none; stroke: #333333; stroke-width: 0.6; stroke-linecap: round"/>
    <path d="M 149.052551 204.938766 
L 152.460876 203.850961 
L 151.286125 207.230304 
z
" clip-path="url(#pe6376d1074)" style="fill: #333333; stroke: #333333; stroke-width: 0.6; stroke-linecap: round"/>
   </g>
   <g id="patch_107">
    <path d="M 143.39914 194.100071 
Q 143.463172 194.034377 143.058977 194.449061 
" clip-path="url(#pe6376d1074)" style="fill: none; stroke: #333333; stroke-width: 0.6; stroke-linecap: round"/>
    <path d="M 139.679634 195.623812 
L 143.058977 194.449061 
L 141.971172 197.857387 
z
" clip-path="url(#pe6376d1074)" style="fill: #333333; stroke: #333333; stroke-width: 0.6; stroke-linecap: round"/>
   </g>
   <g id="patch_108">
    <path d="M 186.96102 194.658147 
Q 187.022841 194.590414 186.632435 195.018152 
" clip-path="url(#pe6376d1074)" style="fill: none; stroke: #333333; stroke-width: 0.6; stroke-linecap: round"/>
    <path d="M 183.293421 196.303058 
L 186.632435 195.018152 
L 185.656951 198.460307 
z
" clip-path="url(#pe6376d1074)" style="fill: #333333; stroke: #333333; stroke-width: 0.6; stroke-linecap: round"/>
   </g>
   <g id="patch_109">
    <path d="M 152.251791 159.948917 
Q 152.319523 159.887096 151.891785 160.277503 
" clip-path="url(#pe6376d1074)" style="fill: none; stroke: #333333; stroke-width: 0.6; stroke-linecap: round"/>
    <path d="M 148.44963 161.252987 
L 151.891785 160.277503 
L 150.606879 163.616517 
z
" clip-path="url(#pe6376d1074)" style="fill: #333333; stroke: #333333; stroke-width: 0.6; stroke-linecap: round"/>
   </g>
   <g id="line2d_5">
    <path d="M 133.207271 -1 
L 133.218328 -0.977886 
L 135.773917 4.133293 
L 138.329507 9.244471 
L 140.885096 14.35565 
L 143.440685 19.466828 
L 145.996274 24.578007 
L 148.551863 29.689185 
L 151.107453 34.800364 
L 153.663042 39.911542 
L 156.218631 45.022721 
L 158.77422 50.133899 
L 161.32981 55.245077 
L 163.885399 60.356256 
L 166.440988 65.467434 
L 168.996577 70.578613 
L 171.552166 75.689791 
L 174.107756 80.80097 
L 176.663345 85.912148 
L 179.218934 91.023327 
L 181.774523 96.134505 
L 184.330113 101.245684 
L 186.885702 106.356862 
L 189.441291 111.46804 
L 191.99688 116.579219 
L 194.552469 121.690397 
L 197.108059 126.801576 
L 199.663648 131.912754 
L 202.219237 137.023933 
L 204.774826 142.135111 
L 207.330416 147.24629 
L 209.886005 152.357468 
L 212.441594 157.468646 
L 214.997183 162.579825 
L 217.552773 167.691003 
L 220.108362 172.802182 
L 222.663951 177.91336 
L 225.21954 183.024539 
L 227.775129 188.135717 
L 230.330719 193.246896 
L 232.886308 198.358074 
L 235.441897 203.469253 
L 237.997486 208.580431 
L 240.553076 213.691609 
L 243.108665 218.802788 
L 245.664254 223.913966 
L 248.219843 229.025145 
L 250.775432 234.136323 
L 253.331022 239.247502 
L 255.886611 244.35868 
L 258.4422 249.469859 
L 260.997789 254.581037 
L 263.553379 259.692215 
L 266.108968 264.803394 
L 268.664557 269.914572 
L 271.220146 275.025751 
L 273.775735 280.136929 
L 276.331325 285.248108 
L 278.886914 290.359286 
L 281.442503 295.470465 
L 283.998092 300.581643 
L 286.553682 305.692822 
L 289.109271 310.804 
" clip-path="url(#pe6376d1074)" style="fill: none; stroke: #457b9d; stroke-width: 2; stroke-linecap: square"/>
   </g>
   <g id="line2d_6">
    <path d="M 36.105937 57.800667 
L 41.217116 60.356256 
L 46.328294 62.911845 
L 51.439473 65.467434 
L 56.550651 68.023024 
L 61.66183 70.578613 
L 66.773008 73.134202 
L 71.884187 75.689791 
L 76.995365 78.24538 
L 82.106544 80.80097 
L 87.217722 83.356559 
L 92.3289 85.912148 
L 97.440079 88.467737 
L 102.551257 91.023327 
L 107.662436 93.578916 
L 112.773614 96.134505 
L 117.884793 98.690094 
L 122.995971 101.245684 
L 128.10715 103.801273 
L 133.218328 106.356862 
L 138.329507 108.912451 
L 143.440685 111.46804 
L 148.551863 114.02363 
L 153.663042 116.579219 
L 158.77422 119.134808 
L 163.885399 121.690397 
L 168.996577 124.245987 
L 174.107756 126.801576 
L 179.218934 129.357165 
L 184.330113 131.912754 
L 189.441291 134.468343 
L 194.552469 137.023933 
L 199.663648 139.579522 
L 204.774826 142.135111 
L 209.886005 144.6907 
L 214.997183 147.24629 
L 220.108362 149.801879 
L 225.21954 152.357468 
L 230.330719 154.913057 
L 235.441897 157.468646 
L 240.553076 160.024236 
L 245.664254 162.579825 
L 250.775432 165.135414 
L 255.886611 167.691003 
L 260.997789 170.246593 
L 266.108968 172.802182 
L 271.220146 175.357771 
L 276.331325 177.91336 
L 281.442503 180.468949 
L 286.553682 183.024539 
L 291.66486 185.580128 
L 296.776039 188.135717 
L 301.887217 190.691306 
L 306.998395 193.246896 
L 312.109574 195.802485 
L 317.220752 198.358074 
L 322.331931 200.913663 
L 327.443109 203.469253 
L 332.554288 206.024842 
L 337.665466 208.580431 
L 342.776645 211.13602 
L 347.887823 213.691609 
L 347.909937 213.702667 
" clip-path="url(#pe6376d1074)" style="fill: none; stroke: #e63946; stroke-width: 2; stroke-linecap: square"/>
   </g>
   <g id="patch_110">
    <path d="M 36.105937 310.804 
L 36.105937 7.2 
" style="fill: none; stroke: #333333; stroke-width: 0.8; stroke-linejoin: miter; stroke-linecap: square"/>
   </g>
   <g id="patch_111">
    <path d="M 36.105937 310.804 
L 339.709938 310.804 
" style="fill: none; stroke: #333333; stroke-width: 0.8; stroke-linejoin: miter; stroke-linecap: square"/>
   </g>
  </g>
 </g>
 <defs>
  <clipPath id="pe6376d1074">
   <rect x="36.105937" y="7.2" width="303.604" height="303.604"/>
  </clipPath>
 </defs>
</svg>
