<?xml version="1.0" encoding="utf-8" standalone="no"?>
<!DOCTYPE svg PUBLIC "-//W3C//DTD SVG 1.1//EN"
  "http://www.w3.org/Graphics/SVG/1.1/DTD/svg11.dtd">
<svg xmlns:xlink="http://www.w3.org/1999/xlink" width="350.64pt" height="77.04pt" viewBox="0 0 350.64 77.04" xmlns="http://www.w3.org/2000/svg" version="1.1">
 <metadata>
  <rdf:RDF xmlns:dc="http://purl.org/dc/elements/1.1/" xmlns:cc="http://creativecommons.org/ns#" xmlns:rdf="http://www.w3.org/1999/02/22-rdf-syntax-ns#">
   <cc:Work>
    <dc:type rdf:resource="http://purl.org/dc/dcmitype/StillImage"/>
    <dc:date>2026-02-01T21:47:15.181637</dc:date>
    <dc:format>image/svg+xml</dc:format>
    <dc:creator>
     <cc:Agent>
      <dc:title>Matplotlib v3.9.2, https://matplotlib.org/</dc:title>
     </cc:Agent>
    </dc:creator>
   </cc:Work>
  </rdf:RDF>
 </metadata>
 <defs>
  <style type="text/css">*{stroke-linejoin: round; stroke-linecap: butt}</style>
 </defs>
 <g id="figure_1">
  <g id="patch_1">
   <path d="M 0 77.04 
L 350.64 77.04 
L 350.64 0 
L 0 0 
L 0 77.04 
z
" style="fill: none"/>
  </g>
  <g id="axes_1">
   <g id="patch_2">
    <path d="M 29.0556 31.292308 
L 35.7804 26.955692 
L 35.7804 31.0032 
L 49.23 31.0032 
L 49.23 31.581415 
L 35.7804 31.581415 
L 35.7804 35.628923 
z
" clip-path="url(#p7fba4d08ec)" style="fill: #457b9d; stroke: #457b9d; stroke-linejoin: miter"/>
   </g>
   <g id="patch_3">
    <path d="M 163.5516 31.292308 
L 156.8268 35.628923 
L 156.8268 31.581415 
L 133.29 31.581415 
L 133.29 31.0032 
L 156.8268 31.0032 
L 156.8268 26.955692 
z
" clip-path="url(#p7fba4d08ec)" style="fill: #457b9d; stroke: #457b9d; stroke-linejoin: miter"/>
   </g>
   <g id="patch_4">
    <path d="M 230.7996 31.292308 
L 224.0748 35.628923 
L 224.0748 31.581415 
L 200.538 31.581415 
L 200.538 31.0032 
L 224.0748 31.0032 
L 224.0748 26.955692 
z
" clip-path="url(#p7fba4d08ec)" style="fill: #457b9d; stroke: #457b9d; stroke-linejoin: miter"/>
   </g>
   <g id="patch_5">
    <path d="M 281.2356 31.292308 
L 287.9604 26.955692 
L 287.9604 31.0032 
L 301.41 31.0032 
L 301.41 31.581415 
L 287.9604 31.581415 
L 287.9604 35.628923 
z
" clip-path="url(#p7fba4d08ec)" style="fill: #457b9d; stroke: #457b9d; stroke-linejoin: miter"/>
   </g>
   <g id="line2d_1">
    <path d="M 7.2 31.292308 
L 343.44 31.292308 
" clip-path="url(#p7fba4d08ec)" style="fill: none; stroke: #333333; stroke-width: 1.5; stroke-linecap: square"/>
   </g>
   <g id="text_1">
    <!-- 0 -->
    <g style="fill: #333333" transform="translate(87.760625 66.152127) scale(0.11 -0.11)">
     <defs>
      <path id="DejaVuSans-30" d="M 2034 4250 
Q 1547 4250 1301 3770 
Q 1056 3291 1056 2328 
Q 1056 1369 1301 889 
Q 1547 409 2034 409 
Q 2525 409 2770 889 
Q 3016 1369 3016 2328 
Q 3016 3291 2770 3770 
Q 2525 4250 2034 4250 
z
M 2034 4750 
Q 2819 4750 3233 4129 
Q 3647 3509 3647 2328 
Q 3647 1150 3233 529 
Q 2819 -91 2034 -91 
Q 1250 -91 836 529 
Q 422 1150 422 2328 
Q 422 3509 836 4129 
Q 1250 4750 2034 4750 
z
" transform="scale(0.015625)"/>
     </defs>
     <use xlink:href="#DejaVuSans-30"/>
    </g>
   </g>
   <g id="text_2">
    <!-- K -->
    <g style="fill: #333333" transform="translate(255.773203 66.152127) scale(0.11 -0.11)">
     <defs>
      <path id="DejaVuSans-4b" d="M 628 4666 
L 1259 4666 
L 1259 2694 
L 3353 4666 
L 4166 4666 
L 1850 2491 
L 4331 0 
L 3500 0 
L 1259 2247 
L 1259 0 
L 628 0 
L 628 4666 
z
" transform="scale(0.015625)"/>
     </defs>
     <use xlink:href="#DejaVuSans-4b"/>
    </g>
   </g>
   <g id="line2d_2">
    <defs>
     <path id="m9b9f46df82" d="M 0 5 
C 1.326016 5 2.597899 4.473168 3.535534 3.535534 
C 4.473168 2.597899 5 1.326016 5 0 
C 5 -1.326016 4.473168 -2.597899 3.535534 -3.535534 
C 2.597899 -4.473168 1.326016 -5 0 -5 
C -1.326016 -5 -2.597899 -4.473168 -3.535534 -3.535534 
C -4.473168 -2.597899 -5 -1.326016 -5 0 
C -5 1.326016 -4.473168 2.597899 -3.535534 3.535534 
C -2.597899 4.473168 -1.326016 5 0 5 
z
" style="stroke: #333333; stroke-width: 1.5"/>
    </defs>
    <g clip-path="url(#p7fba4d08ec)">
     <use xlink:href="#m9b9f46df82" x="91.26" y="31.292308" style="fill: #ffffff; stroke: #333333; stroke-width: 1.5"/>
    </g>
   </g>
   <g id="line2d_3">
    <defs>
     <path id="m9447288102" d="M 0 5 
C 1.326016 5 2.597899 4.473168 3.535534 3.535534 
C 4.473168 2.597899 5 1.326016 5 0 
C 5 -1.326016 4.473168 -2.597899 3.535534 -3.535534 
C 2.597899 -4.473168 1.326016 -5 0 -5 
C -1.326016 -5 -2.597899 -4.473168 -3.535534 -3.535534 
C -4.473168 -2.597899 -5 -1.326016 -5 0 
C -5 1.326016 -4.473168 2.597899 -3.535534 3.535534 
C -2.597899 4.473168 -1.326016 5 0 5 
z
" style="stroke: #333333"/>
    </defs>
    <g clip-path="url(#p7fba4d08ec)">
     <use xlink:href="#m9447288102" x="259.38" y="31.292308" style="fill: #333333; stroke: #333333"/>
    </g>
   </g>
  </g>
 </g>
 <defs>
  <clipPath id="p7fba4d08ec">
   <rect x="7.2" y="7.2" width="336.24" height="62.64"/>
  </clipPath>
 </defs>
</svg>
