<?xml version="1.0" encoding="utf-8" standalone="no"?>
<!DOCTYPE svg PUBLIC "-//W3C//DTD SVG 1.1//EN"
  "http://www.w3.org/Graphics/SVG/1.1/DTD/svg11.dtd">
<svg xmlns:xlink="http://www.w3.org/1999/xlink" width="350.917188pt" height="242.845937pt" viewBox="0 0 350.917188 242.845937" xmlns="http://www.w3.org/2000/svg" version="1.1">
 <metadata>
  <rdf:RDF xmlns:dc="http://purl.org/dc/elements/1.1/" xmlns:cc="http://creativecommons.org/ns#" xmlns:rdf="http://www.w3.org/1999/02/22-rdf-syntax-ns#">
   <cc:Work>
    <dc:type rdf:resource="http://purl.org/dc/dcmitype/StillImage"/>
    <dc:date>2026-02-01T23:34:22.885952</dc:date>
    <dc:format>image/svg+xml</dc:format>
    <dc:creator>
     <cc:Agent>
      <dc:title>Matplotlib v3.9.2, https://matplotlib.org/</dc:title>
     </cc:Agent>
    </dc:creator>
   </cc:Work>
  </rdf:RDF>
 </metadata>
 <defs>
  <style type="text/css">*{stroke-linejoin: round; stroke-linecap: butt}</style>
 </defs>
 <g id="figure_1">
  <g id="patch_1">
   <path d="M 0 242.845937 
L 350.917188 242.845937 
L 350.917188 0 
L 0 0 
L 0 242.845937 
z
" style="fill: none"/>
  </g>
  <g id="axes_1">
   <g id="patch_2">
    <path d="M 49.842188 221 
L 343.717188 221 
L 343.717188 7.2 
L 49.842188 7.2 
L 49.842188 221 
z
" style="fill: none"/>
   </g>
   <g id="line2d_1">
    <path d="M 49.842188 87.375 
L 343.717188 87.375 
" clip-path="url(#p03fa7e60ac)" style="fill: none; stroke-dasharray: 2.22,0.96; stroke-dashoffset: 0; stroke: #888888; stroke-width: 0.6"/>
   </g>
   <g id="matplotlib.axis_1">
    <g id="text_1">
     <!-- t -->
     <g style="fill: #333333" transform="translate(194.623516 233.358281) scale(0.11 -0.11)">
      <defs>
       <path id="DejaVuSans-74" d="M 1172 4494 
L 1172 3500 
L 2356 3500 
L 2356 3053 
L 1172 3053 
L 1172 1153 
Q 1172 725 1289 603 
Q 1406 481 1766 481 
L 2356 481 
L 2356 0 
L 1766 0 
Q 1100 0 847 248 
Q 594 497 594 1153 
L 594 3053 
L 172 3053 
L 172 3500 
L 594 3500 
L 594 4494 
L 1172 4494 
z
" transform="scale(0.015625)"/>
      </defs>
      <use xlink:href="#DejaVuSans-74"/>
     </g>
    </g>
   </g>
   <g id="matplotlib.axis_2">
    <g id="ytick_1">
     <g id="line2d_2">
      <defs>
       <path id="m1b14859ce2" d="M 0 0 
L -3.5 0 
" style="stroke: #333333; stroke-width: 0.8"/>
      </defs>
      <g>
       <use xlink:href="#m1b14859ce2" x="49.842188" y="214.31875" style="fill: #333333; stroke: #333333; stroke-width: 0.8"/>
      </g>
     </g>
     <g id="text_2">
      <!-- 5 -->
      <g style="fill: #333333" transform="translate(35.843438 218.497891) scale(0.11 -0.11)">
       <defs>
        <path id="DejaVuSans-35" d="M 691 4666 
L 3169 4666 
L 3169 4134 
L 1269 4134 
L 1269 2991 
Q 1406 3038 1543 3061 
Q 1681 3084 1819 3084 
Q 2600 3084 3056 2656 
Q 3513 2228 3513 1497 
Q 3513 744 3044 326 
Q 2575 -91 1722 -91 
Q 1428 -91 1123 -41 
Q 819 9 494 109 
L 494 744 
Q 775 591 1075 516 
Q 1375 441 1709 441 
Q 2250 441 2565 725 
Q 2881 1009 2881 1497 
Q 2881 1984 2565 2268 
Q 2250 2553 1709 2553 
Q 1456 2553 1204 2497 
Q 953 2441 691 2322 
L 691 4666 
z
" transform="scale(0.015625)"/>
       </defs>
       <use xlink:href="#DejaVuSans-35"/>
      </g>
     </g>
    </g>
    <g id="ytick_2">
     <g id="line2d_3">
      <g>
       <use xlink:href="#m1b14859ce2" x="49.842188" y="194.275" style="fill: #333333; stroke: #333333; stroke-width: 0.8"/>
      </g>
     </g>
     <g id="text_3">
      <!-- 20 -->
      <g style="fill: #333333" transform="translate(28.844687 198.454141) scale(0.11 -0.11)">
       <defs>
        <path id="DejaVuSans-32" d="M 1228 531 
L 3431 531 
L 3431 0 
L 469 0 
L 469 531 
Q 828 903 1448 1529 
Q 2069 2156 2228 2338 
Q 2531 2678 2651 2914 
Q 2772 3150 2772 3378 
Q 2772 3750 2511 3984 
Q 2250 4219 1831 4219 
Q 1534 4219 1204 4116 
Q 875 4013 500 3803 
L 500 4441 
Q 881 4594 1212 4672 
Q 1544 4750 1819 4750 
Q 2544 4750 2975 4387 
Q 3406 4025 3406 3419 
Q 3406 3131 3298 2873 
Q 3191 2616 2906 2266 
Q 2828 2175 2409 1742 
Q 1991 1309 1228 531 
z
" transform="scale(0.015625)"/>
        <path id="DejaVuSans-30" d="M 2034 4250 
Q 1547 4250 1301 3770 
Q 1056 3291 1056 2328 
Q 1056 1369 1301 889 
Q 1547 409 2034 409 
Q 2525 409 2770 889 
Q 3016 1369 3016 2328 
Q 3016 3291 2770 3770 
Q 2525 4250 2034 4250 
z
M 2034 4750 
Q 2819 4750 3233 4129 
Q 3647 3509 3647 2328 
Q 3647 1150 3233 529 
Q 2819 -91 2034 -91 
Q 1250 -91 836 529 
Q 422 1150 422 2328 
Q 422 3509 836 4129 
Q 1250 4750 2034 4750 
z
" transform="scale(0.015625)"/>
       </defs>
       <use xlink:href="#DejaVuSans-32"/>
       <use xlink:href="#DejaVuSans-30" x="63.623047"/>
      </g>
     </g>
    </g>
    <g id="ytick_3">
     <g id="line2d_4">
      <g>
       <use xlink:href="#m1b14859ce2" x="49.842188" y="154.1875" style="fill: #333333; stroke: #333333; stroke-width: 0.8"/>
      </g>
     </g>
     <g id="text_4">
      <!-- 50 -->
      <g style="fill: #333333" transform="translate(28.844687 158.366641) scale(0.11 -0.11)">
       <use xlink:href="#DejaVuSans-35"/>
       <use xlink:href="#DejaVuSans-30" x="63.623047"/>
      </g>
     </g>
    </g>
    <g id="ytick_4">
     <g id="line2d_5">
      <g>
       <use xlink:href="#m1b14859ce2" x="49.842188" y="60.65" style="fill: #333333; stroke: #333333; stroke-width: 0.8"/>
      </g>
     </g>
     <g id="text_5">
      <!-- 120 -->
      <g style="fill: #333333" transform="translate(21.845938 64.829141) scale(0.11 -0.11)">
       <defs>
        <path id="DejaVuSans-31" d="M 794 531 
L 1825 531 
L 1825 4091 
L 703 3866 
L 703 4441 
L 1819 4666 
L 2450 4666 
L 2450 531 
L 3481 531 
L 3481 0 
L 794 0 
L 794 531 
z
" transform="scale(0.015625)"/>
       </defs>
       <use xlink:href="#DejaVuSans-31"/>
       <use xlink:href="#DejaVuSans-32" x="63.623047"/>
       <use xlink:href="#DejaVuSans-30" x="127.246094"/>
      </g>
     </g>
    </g>
    <g id="ytick_5">
     <g id="line2d_6">
      <g>
       <use xlink:href="#m1b14859ce2" x="49.842188" y="20.5625" style="fill: #333333; stroke: #333333; stroke-width: 0.8"/>
      </g>
     </g>
     <g id="text_6">
      <!-- 150 -->
      <g style="fill: #333333" transform="translate(21.845938 24.741641) scale(0.11 -0.11)">
       <use xlink:href="#DejaVuSans-31"/>
       <use xlink:href="#DejaVuSans-35" x="63.623047"/>
       <use xlink:href="#DejaVuSans-30" x="127.246094"/>
      </g>
     </g>
    </g>
    <g id="ytick_6">
     <g id="line2d_7">
      <g>
       <use xlink:href="#m1b14859ce2" x="49.842188" y="87.375" style="fill: #333333; stroke: #333333; stroke-width: 0.8"/>
      </g>
     </g>
     <g id="text_7">
      <!-- K -->
      <g style="fill: #333333" transform="translate(35.628594 91.554141) scale(0.11 -0.11)">
       <defs>
        <path id="DejaVuSans-4b" d="M 628 4666 
L 1259 4666 
L 1259 2694 
L 3353 4666 
L 4166 4666 
L 1850 2491 
L 4331 0 
L 3500 0 
L 1259 2247 
L 1259 0 
L 628 0 
L 628 4666 
z
" transform="scale(0.015625)"/>
       </defs>
       <use xlink:href="#DejaVuSans-4b"/>
      </g>
     </g>
    </g>
    <g id="text_8">
     <!-- N -->
     <g style="fill: #333333" transform="translate(15.558281 118.214687) rotate(-90) scale(0.11 -0.11)">
      <defs>
       <path id="DejaVuSans-4e" d="M 628 4666 
L 1478 4666 
L 3547 763 
L 3547 4666 
L 4159 4666 
L 4159 0 
L 3309 0 
L 1241 3903 
L 1241 0 
L 628 0 
L 628 4666 
z
" transform="scale(0.015625)"/>
      </defs>
      <use xlink:href="#DejaVuSans-4e"/>
     </g>
    </g>
   </g>
   <g id="line2d_8">
    <path d="M 49.842188 214.31875 
L 55.749223 212.921226 
L 61.656258 211.253825 
L 66.086534 209.800927 
L 70.516811 208.153901 
L 74.947087 206.293747 
L 79.377363 204.201699 
L 83.80764 201.859946 
L 88.237916 199.252511 
L 92.668193 196.366298 
L 97.098469 193.19225 
L 101.528745 189.726575 
L 105.959022 185.971952 
L 110.389298 181.938589 
L 114.819574 177.645015 
L 120.72661 171.563789 
L 126.633645 165.157252 
L 135.494198 155.18514 
L 147.308268 141.897082 
L 153.215303 135.548219 
L 159.122338 129.544536 
L 163.552615 125.319013 
L 167.982891 121.359564 
L 172.413167 117.682409 
L 176.843444 114.29563 
L 181.27372 111.200041 
L 185.703997 108.390306 
L 190.134273 105.856157 
L 194.564549 103.583606 
L 198.994826 101.556084 
L 203.425102 99.755442 
L 207.855378 98.162786 
L 212.285655 96.759156 
L 218.19269 95.149803 
L 224.099725 93.80217 
L 230.00676 92.678284 
L 237.390554 91.536713 
L 244.774348 90.634631 
L 253.634901 89.801564 
L 263.972213 89.091208 
L 275.786283 88.528 
L 290.553871 88.074961 
L 309.751735 87.740137 
L 336.333394 87.523024 
L 343.717188 87.490165 
L 343.717188 87.490165 
" clip-path="url(#p03fa7e60ac)" style="fill: none; stroke: #333333; stroke-width: 1.8; stroke-linecap: square"/>
   </g>
   <g id="line2d_9">
    <path d="M 49.842188 194.275 
L 54.272464 190.905891 
L 58.70274 187.246162 
L 63.133017 183.303424 
L 67.563293 179.093388 
L 73.470328 173.107536 
L 79.377363 166.772194 
L 88.237916 156.850627 
L 101.528745 141.885604 
L 107.43578 135.537264 
L 113.342816 129.534273 
L 117.773092 125.309353 
L 122.203368 121.350552 
L 126.633645 117.674076 
L 131.063921 114.287986 
L 135.494198 111.193081 
L 139.924474 108.384008 
L 144.35475 105.850494 
L 148.785027 103.57854 
L 153.215303 101.551576 
L 157.645579 99.751446 
L 162.075856 98.159259 
L 166.506132 96.756053 
L 172.413167 95.147198 
L 178.320203 93.799994 
L 184.227238 92.676473 
L 191.611032 91.535279 
L 198.994826 90.6335 
L 207.855378 89.800717 
L 218.19269 89.090605 
L 230.00676 88.527594 
L 244.774348 88.074713 
L 263.972213 87.740008 
L 290.553871 87.522972 
L 336.333394 87.40619 
L 343.717188 87.399262 
L 343.717188 87.399262 
" clip-path="url(#p03fa7e60ac)" style="fill: none; stroke: #333333; stroke-width: 1.8; stroke-linecap: square"/>
   </g>
   <g id="line2d_10">
    <path d="M 49.842188 154.1875 
L 60.179499 142.556241 
L 66.086534 136.177978 
L 71.993569 130.135085 
L 76.423846 125.875302 
L 80.854122 121.878737 
L 85.284399 118.162766 
L 89.714675 114.736523 
L 94.144951 111.601747 
L 98.575228 108.753863 
L 103.005504 106.183194 
L 107.43578 103.87619 
L 111.866057 101.816568 
L 116.296333 99.986343 
L 120.72661 98.366675 
L 125.156886 96.938581 
L 131.063921 95.300419 
L 136.970956 93.928038 
L 142.877992 92.783079 
L 150.261785 91.619697 
L 157.645579 90.70009 
L 166.506132 89.850612 
L 176.843444 89.12609 
L 188.657514 88.551537 
L 203.425102 88.089299 
L 222.622966 87.747636 
L 249.204625 87.526069 
L 294.984147 87.406844 
L 343.717188 87.381066 
L 343.717188 87.381066 
" clip-path="url(#p03fa7e60ac)" style="fill: none; stroke: #333333; stroke-width: 1.8; stroke-linecap: square"/>
   </g>
   <g id="line2d_11">
    <path d="M 49.842188 60.65 
L 52.795705 63.658899 
L 55.749223 66.28448 
L 58.70274 68.584672 
L 61.656258 70.606808 
L 64.609775 72.389936 
L 67.563293 73.966541 
L 71.993569 76.002622 
L 76.423846 77.709197 
L 80.854122 79.145143 
L 85.284399 80.357318 
L 91.191434 81.689551 
L 97.098469 82.760575 
L 103.005504 83.624407 
L 110.389298 84.475783 
L 119.249851 85.242487 
L 129.587162 85.88195 
L 141.401233 86.379869 
L 156.168821 86.774703 
L 176.843444 87.07862 
L 206.37862 87.266667 
L 262.495454 87.358962 
L 343.717188 87.373989 
L 343.717188 87.373989 
" clip-path="url(#p03fa7e60ac)" style="fill: none; stroke: #333333; stroke-width: 1.8; stroke-linecap: square"/>
   </g>
   <g id="line2d_12">
    <path d="M 49.842188 20.5625 
L 51.318946 25.356691 
L 52.795705 29.707901 
L 54.272464 33.670029 
L 55.749223 37.288651 
L 58.70274 43.645044 
L 61.656258 49.026367 
L 64.609775 53.619437 
L 67.563293 57.567037 
L 70.516811 60.980179 
L 73.470328 63.946475 
L 76.423846 66.536002 
L 79.377363 68.80547 
L 82.330881 70.801263 
L 85.284399 72.561676 
L 88.237916 74.118601 
L 92.668193 76.129825 
L 97.098469 77.816054 
L 101.528745 79.235223 
L 105.959022 80.433481 
L 111.866057 81.750676 
L 117.773092 82.809808 
L 123.680127 83.664177 
L 131.063921 84.506336 
L 139.924474 85.264835 
L 150.261785 85.897524 
L 162.075856 86.390211 
L 176.843444 86.780924 
L 197.518067 87.081685 
L 227.053243 87.267786 
L 283.170077 87.359127 
L 343.717188 87.372978 
L 343.717188 87.372978 
" clip-path="url(#p03fa7e60ac)" style="fill: none; stroke: #333333; stroke-width: 1.8; stroke-linecap: square"/>
   </g>
   <g id="patch_3">
    <path d="M 49.842188 221 
L 49.842188 7.2 
" style="fill: none; stroke: #333333; stroke-width: 0.8; stroke-linejoin: miter; stroke-linecap: square"/>
   </g>
   <g id="patch_4">
    <path d="M 49.842188 221 
L 343.717188 221 
" style="fill: none; stroke: #333333; stroke-width: 0.8; stroke-linejoin: miter; stroke-linecap: square"/>
   </g>
  </g>
 </g>
 <defs>
  <clipPath id="p03fa7e60ac">
   <rect x="49.842188" y="7.2" width="293.875" height="213.8"/>
  </clipPath>
 </defs>
</svg>
